<svg width="2772" height="543" xmlns="http://www.w3.org/2000/svg" xmlns:xlink="http://www.w3.org/1999/xlink" xml:space="preserve" overflow="hidden"><defs><clipPath id="clip0"><rect x="718" y="897" width="2772" height="543"/></clipPath></defs><g clip-path="url(#clip0)" transform="translate(-718 -897)"><path d="M132.976 468.264C126.208 460.085 107.033 431.65 90.4905 404.773 73.9473 377.897 56.6525 351.02 52.5167 344.398-3.12814 262.21 1.75965 281.296 0.631829 141.85L-0.496337 20.7101 8.90342 10.1934C17.1747 0.844874 21.3105-0.323646 40.8613-0.323646L63.4201-0.323646 70.5635 16.4254C74.3234 25.3845 80.3391 44.0812 84.0987 58.1038 87.8587 72.1264 95.7541 99.7822 101.77 120.037 107.785 139.902 112.673 159.768 112.673 163.663 112.673 167.948 116.057 171.842 121.32 173.011 125.832 174.18 180.349 174.569 242.385 174.18L355.179 173.011 356.307 86.149 357.059-0.323646 391.273-0.323646C414.959-0.323646 425.486 1.23426 426.238 4.74018 434.51 33.1748 457.445 108.351 464.588 129.385 469.476 144.187 473.612 158.988 473.612 162.884 473.612 171.842 492.787 188.202 554.823 230.66L604.076 264.547 641.298 252.473C661.6 245.851 687.919 236.892 699.198 232.607 768.002 206.899 803.344 208.068 823.271 237.281 834.926 254.42 830.414 267.274 808.232 279.739 799.208 285.192 784.169 296.877 775.146 306.225 766.498 315.574 758.227 322.975 757.475 322.975 756.723 322.975 748.451 328.039 739.804 334.271 724.389 344.788 654.833 387.245 614.603 410.616 604.452 416.459 586.781 426.586 576.253 432.818 558.582 442.946 549.935 444.894 497.298 449.957 464.588 453.073 404.056 459.695 362.698 465.148 297.278 473.328 189.748 482.677 156.287 482.677 148.391 482.677 141.999 478.781 132.976 468.264Z" stroke="#000000" stroke-width="0.458333" stroke-miterlimit="8" fill="#FF0000" fill-rule="evenodd" transform="matrix(1 0 0 -1 719.5 1380.5)"/><path d="M-0.500081 185.136C-3.51348 176.965 0.630249 170.739 9.29425 170.739 13.0611 170.739 16.8283 168.404 17.5817 166.069 20.5951 157.12 21.3485 44.6652 18.7117 29.8787 16.8283 19.3724 13.8145 15.0922 8.16392 14.3142 3.64365 13.5359-0.500081 10.0339-1.25352 6.53194-2.3835 0.305993 1.00679-0.47234 33.0263-0.47234 52.2377-0.47234 69.1892 0.694979 70.696 1.8623 75.5932 6.92092 68.0592 15.0922 57.8883 15.0922 45.4571 15.0922 41.6903 24.0421 43.9506 50.5018L45.4571 67.234 69.1892 72.2922C99.7018 78.5182 114.016 87.4678 122.68 104.589 137.372 132.605 127.578 166.069 101.209 180.077 81.2438 190.973 3.2671 194.475-0.500081 185.136ZM85.0107 164.124C97.4418 156.341 100.832 148.559 100.832 126.379 100.832 108.48 92.5447 99.5307 69.5661 92.5264 45.0806 84.7441 43.1972 87.8571 43.1972 129.103 43.1972 149.337 44.3271 166.848 45.834 168.015 50.3543 173.074 74.0863 170.739 85.0107 164.124Z" stroke="#000000" stroke-width="0.458333" stroke-miterlimit="8" fill="#FFFFFF" fill-rule="evenodd" transform="matrix(1 0 0 -1 2243.5 1088.5)"/><path d="M78.5043 188.212C75.8714 187.043 69.4781 172.618 64.213 156.245 53.6824 121.939 31.4933 54.4956 24.7237 35.3931 22.0912 28.3761 15.3216 20.1892 9.30424 16.6807 3.28688 13.5619-1.60233 8.49382-1.60233 5.37502-1.60233 0.697003 4.41503-0.472501 28.4848-0.472501 52.9301-0.472501 58.5716 0.697003 58.5716 5.37502 58.5716 8.88389 54.4346 13.1722 49.1694 15.1211 43.9043 17.0704 39.7673 19.4094 39.7673 19.7995 39.7673 20.5789 42.7758 29.9353 46.5369 40.4612L53.3064 59.9534 82.2651 61.1229C114.233 62.2924 113.856 62.6822 120.626 31.8846 122.882 20.5789 122.13 18.63 113.104 15.1211 93.9238 7.71439 104.454 1.47679 138.678 0.307288 168.765-0.862215 171.398-0.0827871 171.398 6.9346 171.398 11.6126 168.013 15.1211 162.372 16.6807 151.841 19.4094 152.217 19.0197 123.635 114.531 102.95 183.534 100.693 188.602 92.4194 189.382 87.1543 189.772 80.7606 189.382 78.5043 188.212Z" stroke="#000000" stroke-width="0.458333" stroke-miterlimit="8" fill="#FFFFFF" fill-rule="evenodd" transform="matrix(1 0 0 -1 2374.5 1088.5)"/><path d="M1.43005 183.098C1.43005 177.642 4.81199 173.355 10.8243 171.016L20.2185 167.119 19.4669 92.287 18.3397 17.4555 8.94515 15.117C3.68445 13.9478-0.824683 9.66057-1.57626 6.15292-2.70346 0.30649 1.05409-0.473107 31.1159-0.473107 49.5284-0.473107 65.6864 1.08609 66.814 2.64492 69.4443 7.32214 64.1836 13.9478 55.9166 15.5066 49.1527 17.0658 48.4012 20.5735 47.274 49.4149L46.1464 81.3741 58.9229 81.3741C70.9475 81.3741 73.2019 79.0356 90.8631 51.3634 106.646 26.0299 108.9 20.1839 104.391 16.6759 101.385 14.3374 99.1302 9.27059 99.1302 5.76294 99.1302 0.696469 104.015-0.473107 129.192-0.473107 153.617-0.473107 159.253 0.696469 159.253 5.37333 159.253 8.88097 155.12 13.1682 149.859 15.117 144.223 17.4555 132.198 31.876 119.797 50.9738L99.1302 83.3229 111.906 95.0154C118.67 101.641 126.186 110.605 128.44 115.282 134.828 126.975 134.077 149.58 127.313 163.221 117.167 183.098 102.888 188.165 49.5284 189.724 2.55725 191.283 1.43005 191.283 1.43005 183.098ZM87.4812 166.729C101.761 161.662 106.646 153.088 106.646 133.99 106.646 112.554 92.3663 100.861 66.814 100.861L46.5224 100.861 46.5224 135.939 46.5224 171.016 61.1773 171.016C69.0684 171.016 80.7173 169.067 87.4812 166.729Z" stroke="#000000" stroke-width="0.458333" stroke-miterlimit="8" fill="none" fill-rule="evenodd" transform="matrix(1 0 0 -1 2555.5 1088.5)"/><path d="M-0.302879 185.575C-3.3125 177.024 0.826035 171.193 9.85526 171.193 16.6273 171.193 17.0038 167.695 17.0038 96.1745L17.0038 20.7668 7.59813 16.4911C-2.18394 11.8265-5.56998 0.554378 3.08317-0.223121 27.9144-1.38919 73.8141 1.72045 84.7247 5.60758 123.852 19.6008 147.178 58.0817 143.792 103.171 141.911 128.436 132.129 152.536 117.833 166.14 103.912 179.745 78.7051 187.13 38.825 189.462 7.59813 191.406 1.9546 191.017-0.302879 185.575ZM74.5666 165.751C103.536 154.868 114.823 134.655 114.823 94.2309 114.823 60.8028 105.041 39.8128 84.7247 27.7632 75.319 22.3215 65.1609 19.6008 57.6363 20.3779L45.2207 21.544 44.0921 87.6231C43.7157 124.16 44.0921 157.589 45.2207 162.642 47.4782 172.359 53.8739 173.137 74.5666 165.751Z" stroke="#000000" stroke-width="0.458333" stroke-miterlimit="8" fill="#FFFFFF" fill-rule="evenodd" transform="matrix(1 0 0 -1 2723.5 1088.5)"/><path d="M40.1913 187.977C-10.419 162.206-17.1671 52.4827 28.9447 13.826 54.4372-7.65007 94.5504-4.52624 115.17 20.464 147.035 58.7303 148.535 134.873 117.794 170.406 97.5497 193.834 65.6839 201.253 40.1913 187.977ZM87.8024 168.844C102.423 158.301 110.671 133.701 110.671 100.902 110.671 63.4159 105.422 43.5019 91.1764 29.8352 65.6839 5.23559 36.4426 24.3686 28.5696 70.835 24.071 98.168 27.4451 135.263 36.4426 153.615 46.5646 173.92 70.5575 181.339 87.8024 168.844Z" stroke="#000000" stroke-width="0.458333" stroke-miterlimit="8" fill="#FFFFFF" fill-rule="evenodd" transform="matrix(1 0 0 -1 2893.5 1092.5)"/><path d="M62.2099 222.817C58.822 218.925 53.5522 210.752 50.1644 204.135 46.7766 197.908 37.366 182.729 28.7083 171.053-5.16977 123.571-5.16977 122.403 6.12282 88.9324 10.2635 77.2564 16.2863 60.1316 19.6741 50.4017 22.6856 40.6717 27.9555 25.493 31.3433 16.5415L37.366-0.194173 70.8679-0.194173 104.369-0.194173 104.369 12.6494C103.993 24.3254 98.7229 61.6886 84.0425 155.485 81.0313 175.724 77.2669 200.632 76.1377 211.141 73.5028 230.99 70.8679 232.936 62.2099 222.817Z" stroke="#000000" stroke-width="0.458333" stroke-miterlimit="8" fill="#FF0000" fill-rule="evenodd" transform="matrix(1 0 0 -1 1243.5 1380.5)"/><path d="M51.8791 144.173C47.0321 137.56 38.8295 126.667 33.6097 119.664 14.2219 94.3774-1.06453 68.3126-0.318806 62.088 0.426917 58.5869 5.64664 43.4148 11.6121 29.0209L22.4246 2.1779 56.3531 1.01085 90.6547-0.156209 88.0448 22.4071C86.5534 34.8562 83.1978 57.4198 80.5879 72.203 77.6054 87.3751 73.5041 112.273 71.2669 127.834 68.657 143.006 65.3014 155.844 63.81 155.844 61.9459 155.844 56.7261 150.397 51.8791 144.173Z" stroke="#000000" stroke-width="0.458333" stroke-miterlimit="8" fill="#FF0000" fill-rule="evenodd" transform="matrix(1 0 0 -1 911.5 1380.5)"/><path d="M29.3224 191.986C10.5277 182.243 4.51307 172.89 2.63367 150.288 0.754268 124.568 7.89613 114.046 41.7267 94.5606 78.1886 73.5169 88.3378 63.3844 88.3378 48.9656 88.3378 34.1568 85.7065 29.4805 73.678 23.2452 53.7557 12.3336 28.1945 27.9215 22.5563 54.0318 20.6769 62.9949 18.0453 65.7226 10.9035 65.7226 2.25793 65.7226 1.88184 64.5535 1.88184 43.5098 1.88184 31.0392 0.754268 17.0099-0.373303 12.3336-2.62879 4.53969-1.50122 3.37062 8.64796 3.37062 15.0383 3.37062 20.6769 5.3192 21.4284 7.65735 22.5563 10.775 27.0669 9.9955 35.7125 5.3192 44.7341 0.642539 53.7557-0.916106 68.7912 0.252968 86.8345 1.81161 91.3451 4.14976 102.246 16.2308 113.147 28.701 114.651 33.3773 114.651 51.3038 114.651 70.0093 113.147 73.5169 100.367 87.5461 92.4727 95.7297 76.3092 108.979 63.9049 116.384 51.5002 123.788 38.3437 133.141 34.9606 137.038 19.9251 152.236 32.7055 178.736 54.5075 178.736 68.7912 178.736 83.8271 164.317 86.8345 147.56 88.7139 138.597 91.3451 135.869 98.1112 135.869 106.757 135.869 107.133 137.038 107.133 165.096 107.133 190.817 106.381 194.324 100.367 194.324 96.6076 194.324 91.7208 192.375 89.8414 190.427 87.2102 187.699 81.5717 188.089 72.1743 192.375 54.8833 199.78 44.3583 199.78 29.3224 191.986Z" stroke="#000000" stroke-width="0.458333" stroke-miterlimit="8" fill="#FFFFFF" fill-rule="evenodd" transform="matrix(1 0 0 -1 2100.5 1438.5)"/><path d="M59.9746 193.92C9.53693 184.606-16.8112 112.812 6.90216 49.1681 18.5707 17.7342 41.9074-0.116959 72.0197-0.116959 101.003-0.116959 123.963 19.6746 136.008 55.3773 160.474 127.559 118.317 204.397 59.9746 193.92ZM95.733 163.262C108.531 147.351 114.929 117.081 112.294 84.8711 110.036 55.3773 103.261 39.4662 88.5812 27.436 75.7836 16.958 64.4916 16.958 51.694 27.436 37.0141 39.4662 30.2389 55.3773 27.9807 84.8711 25.3459 117.081 31.7446 147.351 44.5422 163.262 52.0703 172.575 56.587 174.516 70.1374 174.516 83.6879 174.516 88.2049 172.575 95.733 163.262Z" stroke="#000000" stroke-width="0.458333" stroke-miterlimit="8" fill="#FFFFFF" fill-rule="evenodd" transform="matrix(1 0 0 -1 2747.5 1438.5)"/><path d="M28.4665 192.81C13.7783 186.183 0.596279 164.355 0.596279 147.204 0.596279 126.155 11.8949 112.123 45.0381 91.854 78.1809 71.5848 87.2197 61.84 87.2197 46.2482 87.2197 34.1647 84.2069 29.0977 72.5315 23.2506 52.5703 12.3365 25.4533 28.7076 20.5575 54.8236 19.0509 62.2297 16.0378 65.7377 11.1419 65.7377 2.47932 65.7377 1.72603 63.0093-0.533476 29.877L-2.41652 3.3714 8.12879 3.3714C14.1547 3.3714 19.4274 5.32042 20.1807 7.65911 21.3108 10.7775 25.8302 9.9978 34.4924 5.32042 43.5315 0.642687 52.5703-0.916317 67.6353 0.253026 85.7131 1.81203 90.2328 4.15108 101.155 16.2345 112.077 28.7076 113.583 33.3854 113.583 51.3156 113.583 77.8215 107.934 85.6173 72.5315 108.615 37.5056 131.612 26.9599 142.137 26.9599 154.22 26.9599 176.828 59.3495 187.353 75.1678 169.812 79.6872 164.745 84.5834 155.39 85.7131 148.374 87.5965 138.629 90.2328 135.9 97.0121 135.9 104.921 135.9 106.051 137.849 106.051 151.102 106.051 159.288 107.181 171.371 108.311 178.388 110.947 192.42 102.285 198.656 90.6093 190.861 84.9602 187.353 80.8173 187.742 72.1547 192.42 58.973 199.436 43.908 199.826 28.4665 192.81Z" stroke="#000000" stroke-width="0.458333" stroke-miterlimit="8" fill="#FFFFFF" fill-rule="evenodd" transform="matrix(1 0 0 -1 3375.5 1438.5)"/><path d="M3.32986 186.281C4.08226 180.417 7.46788 176.898 13.1103 176.116 21.3864 174.943 21.3864 174.552 21.3864 98.7024 21.3864 38.883 20.258 22.8533 16.496 22.8533 13.8627 22.8533 8.21993 20.5071 4.08226 17.3792-2.68898 11.9056-2.68898 11.1239 3.32986 4.86817 8.97233-0.996331 13.4867-1.38754 48.8474 2.13116 81.5751 5.65023 90.9796 8.38687 105.651 17.7704 136.497 38.1013 152.673 73.6799 148.159 113.56 145.526 136.236 131.231 163.605 116.184 174.552 99.6317 187.063 67.6566 194.883 33.4241 194.883 2.95349 194.883 2.20109 194.492 3.32986 186.281ZM93.6128 163.214C110.541 150.311 119.193 128.808 119.193 98.3116 119.193 54.9131 99.2556 27.9357 65.0234 24.0262L47.7189 21.68 47.7189 95.9658C47.7189 136.627 48.8474 171.424 50.7285 172.988 55.2426 178.071 81.9512 171.815 93.6128 163.214Z" stroke="#000000" stroke-width="0.458333" stroke-miterlimit="8" fill="#FFFFFF" fill-rule="evenodd" transform="matrix(1 0 0 -1 1776.5 1438.5)"/><path d="M-0.181808 187.022C-3.18391 178.819 1.31889 173.35 11.8259 173.35L20.8318 173.35 20.8318 97.5682 20.8318 21.7861 9.19923 19.4423C-0.181808 17.4895-2.05829 15.5363-0.932333 8.50476-0.181808 3.03596 2.81994-0.479611 6.94766-0.089112 10.3248-0.089112 39.2185 0.301749 70.7391 0.692248L127.776 1.47361 127.401 27.6457C127.025 53.0365 126.65 54.2083 118.019 54.2083 110.515 54.2083 108.638 51.4741 106.012 37.8019L103.01 21.0051 74.8665 21.0051 47.0988 21.0051 47.0988 55.771 47.0988 90.537 59.8571 92.0994C76.3676 94.0526 80.8707 92.0994 80.8707 83.115 80.8707 77.6462 83.4974 75.693 90.2517 75.693 99.2573 75.693 99.6328 76.4744 99.6328 103.037 99.6328 128.037 98.8823 130.381 92.1279 130.381 87.2496 130.381 83.1219 126.475 80.8707 120.616 77.8686 112.412 74.8665 110.85 62.1083 110.85L47.0988 110.85 47.0988 142.1 47.0988 173.35 75.2419 173.35C102.635 173.35 103.385 172.96 103.385 163.975 103.385 148.35 107.513 142.1 116.894 142.1 125.524 142.1 125.9 143.272 125.9 167.491L125.9 192.882 63.9848 192.882C12.9515 192.882 1.31889 191.71-0.181808 187.022Z" stroke="#000000" stroke-width="0.458333" stroke-miterlimit="8" fill="#FFFFFF" fill-rule="evenodd" transform="matrix(1 0 0 -1 1946.5 1436.5)"/><path d="M73.733 186.204C71.8574 183.475 66.2304 167.883 61.7285 151.902 56.8518 135.92 51.9749 121.108 50.8492 118.769 49.3489 116.82 41.4706 94.2118 33.5927 68.8748 21.5882 31.4545 17.0862 22.0993 9.20828 18.2012 4.33133 15.4728-0.545282 10.4053-1.29561 6.50757-2.42128 0.660409 0.955026-0.119286 27.5904-0.119286 52.3499-0.119286 57.9772 1.05044 57.9772 5.72788 57.9772 9.23596 53.8505 13.9134 48.5986 16.2525 38.4697 20.9299 38.4697 21.7096 47.8483 49.775L51.9749 62.638 81.9863 61.4686 111.623 60.2992 116.5 42.7585C122.877 20.5403 123.252 21.7096 113.499 17.4218 108.622 15.0831 104.495 10.4053 103.745 6.89724 102.619 0.660409 105.996-0.119286 136.382-0.119286 167.519-0.119286 170.52 0.660409 170.52 7.28691 170.52 11.9647 166.394 16.2525 160.017 18.5912 150.638 21.7096 148.387 26.7767 139.008 58.7402 125.503 105.905 107.121 166.324 102.244 180.357 99.2431 188.152 95.8668 190.881 87.9885 190.881 82.3616 190.881 75.984 188.542 73.733 186.204Z" stroke="#000000" stroke-width="0.458333" stroke-miterlimit="8" fill="#FFFFFF" fill-rule="evenodd" transform="matrix(1 0 0 -1 2232.5 1434.5)"/><path d="M2.89861 182.964C3.6547 176.759 7.0569 173.27 12.7273 172.494L21.0439 171.331 20.2878 94.9424 19.1535 18.554 8.94693 17.3908C1.3868 16.6152-1.63754 13.901-1.63754 8.47245-1.63754 1.88061 1.3868 1.10499 32.3845 1.10499 63.3821 1.10499 66.4065 1.88061 66.4065 8.47245 66.4065 13.1254 63.0043 16.6152 56.956 18.1664 47.8833 20.4929 47.5054 21.6561 47.5054 51.5136L47.5054 82.5343 60.3582 82.5343C72.4548 82.5343 74.7231 80.5954 90.5998 53.4525 109.879 21.2685 110.635 18.554 102.319 15.0643 95.892 12.7378 94.758 2.65587 100.429 0.329376 102.319-0.0582521 116.683-0.445881 132.56 0.329376 165.07 1.88061 169.984 8.47245 147.681 19.3296 140.499 22.8194 134.451 27.0847 134.451 28.248 134.451 29.7992 126.512 43.3705 116.683 59.2687 99.6724 86.4117 99.2942 87.5749 106.477 92.6159 131.426 110.841 138.987 129.841 131.048 156.208 128.024 166.678 122.354 174.045 112.525 180.249 100.05 188.005 92.868 189.168 50.1516 190.719L1.3868 191.882 2.89861 182.964ZM90.2219 168.229C109.501 160.861 112.525 129.065 95.892 110.841 89.4658 103.861 83.7954 101.922 67.5404 101.922L47.5054 101.922 47.5054 136.82 47.5054 171.718 64.1382 171.718C73.5888 171.718 85.3075 170.167 90.2219 168.229Z" stroke="#000000" stroke-width="0.458333" stroke-miterlimit="8" fill="#FFFFFF" fill-rule="evenodd" transform="matrix(1 0 0 -1 2411.5 1435.5)"/><path d="M2.37559 185.034C-0.640965 177.238 3.88386 171.391 12.5559 171.391 19.3428 171.391 19.7197 167.883 19.7197 95.7708L19.7197 20.1502 9.16248 16.2525C3.12972 14.3034-1.772 9.62599-1.772 6.11754-1.772 0.270742 2.75248-0.119286 32.1625 0.660409 69.1135 1.82977 79.2938 8.0666 57.8018 16.6422L45.7362 21.3196 46.8673 50.5543 47.9987 79.7891 60.0642 80.9584C71.3755 82.1278 73.6379 80.1791 86.4576 59.5199 109.081 23.2686 110.966 19.3709 104.556 16.6422 101.54 15.4728 98.9003 11.185 98.9003 7.28691 98.9003 0.660409 101.917-0.119286 129.064-0.119286 156.212-0.119286 159.228 0.660409 159.228 7.28691 159.228 11.9647 155.835 15.4728 149.802 17.0318 143.769 18.5912 134.72 29.1158 123.031 47.4359 113.605 63.028 104.933 77.8404 103.802 80.5688 102.671 83.2975 108.703 92.6524 117.375 101.228 127.179 111.363 133.212 120.718 133.589 127.344 136.228 176.069 116.244 190.492 46.8673 190.881 13.3101 190.881 3.88386 189.712 2.37559 185.034ZM96.6379 163.205C104.556 156.969 106.441 151.902 106.441 138.259 106.441 128.124 103.802 118.379 100.031 113.312 92.4903 103.567 70.6214 97.3302 55.9166 100.059 46.1135 102.008 46.1135 102.787 46.1135 136.7L46.1135 171.391 66.4738 171.391C81.179 171.391 89.0969 169.053 96.6379 163.205Z" stroke="#000000" stroke-width="0.458333" stroke-miterlimit="8" fill="#FFFFFF" fill-rule="evenodd" transform="matrix(1 0 0 -1 2578.5 1434.5)"/><path d="M-0.869669 185.19C-3.49956 178.198 3.63806 171.984 14.1562 171.984 20.1666 171.984 20.5425 165.769 20.5425 96.6318L20.5425 21.2799 9.27299 17.0073C-1.99686 13.1231-6.1291 3.02449 2.88672 0.694081 5.14076-0.0828431 34.066-0.471125 66.3722 0.305799L124.974 1.47101 124.223 31.3784C123.472 58.1789 122.345 61.2862 115.583 62.4514 108.821 63.6166 106.943 60.5093 103.186 42.2539L99.0542 20.5029 72.7585 20.5029 46.8382 20.5029 46.8382 95.8548 46.8382 171.595 57.3564 172.76C64.494 173.537 67.499 176.256 67.499 181.694 67.499 188.685 64.494 189.462 34.4415 190.627 7.01895 191.404 1.38402 190.627-0.869669 185.19Z" stroke="#000000" stroke-width="0.458333" stroke-miterlimit="8" fill="#FFFFFF" fill-rule="evenodd" transform="matrix(1 0 0 -1 2908.5 1435.5)"/><path d="M-1.22891 187.023C-4.24907 179.21 0.281173 173.351 8.96361 173.351 15.7586 173.351 16.136 169.835 16.136 97.1793L16.136 21.008 6.32115 18.6643C-0.473867 16.7111-2.73899 13.9766-1.98395 7.72689-1.22891 2.64868 1.79125-0.476342 5.94345-0.0858503 9.34096-0.0858503 36.8987 0.305004 67.0986 0.695496L121.836 1.47684 121.836 33.1172C121.836 63.5857 121.459 64.3671 113.531 63.1952 106.359 62.4139 104.094 58.5075 101.451 41.7109L98.0538 21.008 70.1187 21.008 42.561 21.008 43.316 96.0075 44.4488 171.007 53.8862 173.351C59.9262 174.913 63.7011 178.819 64.4561 184.288 65.5889 192.491 64.4561 192.882 33.1235 192.882 8.20857 192.882 0.281173 191.71-1.22891 187.023Z" stroke="#000000" stroke-width="0.458333" stroke-miterlimit="8" fill="#FFFFFF" fill-rule="evenodd" transform="matrix(1 0 0 -1 3062.5 1436.5)"/><path d="M38.7665 187.295C23.0048 177.55 15.8743 168.195 6.49225 145.976-3.64037 122.979-5.14123 85.1684 2.73958 57.8824 19.2518-1.75639 81.1736-19.6868 118.327 24.3599 134.464 43.46 139.718 62.5602 139.718 99.5907 139.718 140.129 128.084 167.805 103.69 184.176 84.1757 197.04 56.0296 198.599 38.7665 187.295ZM94.3083 163.907C106.693 148.315 113.448 117.911 111.196 85.9477 108.944 54.7639 99.5622 32.5458 85.3014 25.1396 69.1643 16.1744 59.7823 18.1234 46.2721 32.1561 20.0024 59.4417 18.8767 137.791 44.3958 164.297 59.7823 179.889 81.5488 179.499 94.3083 163.907Z" stroke="#000000" stroke-width="0.458333" stroke-miterlimit="8" fill="#FFFFFF" fill-rule="evenodd" transform="matrix(1 0 0 -1 3211.5 1438.5)"/></g></svg>