<?xml version="1.0" standalone="no"?>
<!DOCTYPE svg PUBLIC "-//W3C//DTD SVG 20010904//EN"
 "http://www.w3.org/TR/2001/REC-SVG-20010904/DTD/svg10.dtd">
<svg version="1.0" xmlns="http://www.w3.org/2000/svg"
 width="856.000000pt" height="193.000000pt" viewBox="0 0 856.000000 193.000000"
 preserveAspectRatio="xMidYMid meet">
<metadata>
Created by potrace 1.16, written by Peter Selinger 2001-2019
</metadata>
<g transform="translate(0.000000,193.000000) scale(0.100000,-0.100000)"
fill="#000000" stroke="none">
<path d="M834 1573 c-18 -21 -69 -94 -113 -163 -44 -69 -90 -138 -101 -155
-148 -211 -135 -162 -138 -520 l-3 -311 25 -27 c22 -24 33 -27 85 -27 l60 0
19 43 c10 23 26 71 36 107 10 36 31 107 47 159 16 51 29 102 29 112 0 11 9 21
23 24 12 3 157 4 322 3 l300 -3 3 -223 2 -222 91 0 c63 0 91 4 93 13 22 73 83
266 102 320 13 38 24 76 24 86 0 23 51 65 216 174 l131 87 99 -31 c54 -17 124
-40 154 -51 183 -66 277 -63 330 12 31 44 19 77 -40 109 -24 14 -64 44 -88 68
-23 24 -45 43 -47 43 -2 0 -24 13 -47 29 -41 27 -226 136 -333 196 -27 15 -74
41 -102 57 -47 26 -70 31 -210 44 -87 8 -248 25 -358 39 -174 21 -460 45 -549
45 -21 0 -38 -10 -62 -37z"/>
<path d="M4534 1597 c-8 -21 3 -37 26 -37 10 0 20 -6 22 -12 8 -23 10 -312 3
-350 -5 -27 -13 -38 -28 -40 -12 -2 -23 -11 -25 -20 -3 -16 6 -18 91 -18 51 0
96 3 100 6 13 13 -7 34 -34 34 -33 0 -43 23 -37 91 l4 43 63 13 c81 16 119 39
142 83 39 72 13 158 -57 194 -53 28 -260 37 -270 13z m227 -54 c33 -20 42 -40
42 -97 0 -46 -22 -69 -83 -87 -65 -20 -70 -12 -70 94 0 52 3 97 7 100 12 13
75 7 104 -10z"/>
<path d="M5093 1604 c-7 -3 -24 -40 -38 -82 -28 -88 -87 -261 -105 -310 -7
-18 -25 -39 -41 -48 -16 -8 -29 -21 -29 -29 0 -12 16 -15 80 -15 65 0 80 3 80
15 0 9 -11 20 -25 25 -14 5 -25 11 -25 12 0 2 8 26 18 53 l18 50 77 3 c85 3
84 4 102 -75 6 -29 4 -34 -20 -43 -51 -19 -23 -35 68 -38 80 -3 87 -1 87 17 0
12 -9 21 -24 25 -28 7 -27 6 -103 251 -55 177 -61 190 -83 192 -14 1 -31 0
-37 -3z"/>
<path d="M5370 1591 c0 -14 9 -25 25 -31 l25 -10 -2 -192 -3 -192 -25 -6 c-14
-3 -26 -14 -28 -23 -3 -15 7 -17 87 -17 49 0 92 4 95 8 7 12 -7 29 -29 33 -18
4 -20 13 -23 87 l-3 82 34 0 c32 0 38 -6 85 -77 42 -65 48 -80 36 -89 -8 -6
-14 -19 -14 -28 0 -13 13 -16 80 -16 65 0 80 3 80 15 0 9 -11 20 -25 25 -15 6
-47 43 -80 92 l-55 83 34 30 c18 17 38 40 44 52 17 30 15 88 -3 123 -27 51
-65 64 -207 68 -125 4 -128 4 -128 -17z m229 -42 c38 -13 51 -35 51 -84 0 -55
-38 -85 -106 -85 l-54 0 0 90 0 90 39 0 c21 0 52 -5 70 -11z"/>
<path d="M5814 1597 c-8 -22 3 -37 27 -37 18 0 19 -9 19 -193 l0 -194 -25 -11
c-26 -12 -35 -41 -12 -43 66 -3 188 5 217 15 104 36 166 135 157 251 -5 65
-31 127 -69 162 -37 35 -104 54 -210 60 -83 5 -98 4 -104 -10z m199 -51 c77
-28 107 -80 107 -184 0 -86 -26 -140 -80 -171 -25 -14 -52 -21 -72 -19 l-33 3
-3 170 c-1 94 0 180 3 193 6 25 23 27 78 8z"/>
<path d="M6372 1593 c-135 -66 -153 -347 -30 -446 68 -55 175 -47 230 17 85
98 89 293 7 384 -54 60 -139 79 -207 45z m127 -49 c39 -27 61 -90 61 -174 0
-96 -14 -147 -52 -182 -68 -63 -146 -14 -167 105 -12 70 -3 165 21 212 27 52
91 71 137 39z"/>
<path d="M2038 943 c-9 -10 -23 -31 -32 -48 -9 -16 -34 -55 -57 -85 -90 -122
-90 -125 -60 -211 11 -30 27 -74 36 -99 8 -25 22 -64 31 -87 l16 -43 89 0 89
0 0 33 c-1 30 -15 126 -54 367 -8 52 -18 116 -21 143 -7 51 -14 56 -37 30z"/>
<path d="M1128 740 c-13 -17 -35 -45 -49 -63 -52 -65 -93 -132 -91 -148 2 -9
16 -48 32 -85 l29 -69 91 -3 92 -3 -7 58 c-4 32 -13 90 -20 128 -8 39 -19 103
-25 143 -7 39 -16 72 -20 72 -5 0 -19 -14 -32 -30z"/>
<path d="M4233 714 c-50 -25 -66 -49 -71 -107 -5 -66 14 -93 104 -143 97 -54
124 -80 124 -117 0 -38 -7 -50 -39 -66 -53 -28 -121 12 -136 79 -5 23 -12 30
-31 30 -23 0 -24 -3 -24 -57 0 -32 -3 -68 -6 -80 -6 -20 -3 -23 24 -23 17 0
32 5 34 11 3 8 15 6 38 -6 24 -12 48 -16 88 -13 48 4 60 10 89 41 29 32 33 44
33 90 0 48 -4 57 -38 93 -21 21 -64 55 -97 74 -33 19 -68 43 -77 53 -40 39 -6
107 52 107 38 0 78 -37 86 -80 5 -23 12 -30 30 -30 23 0 24 3 24 75 0 66 -2
75 -18 75 -10 0 -23 -5 -28 -10 -7 -7 -22 -6 -47 5 -46 19 -74 19 -114 -1z"/>
<path d="M6038 720 c-134 -24 -204 -209 -141 -373 31 -81 93 -127 173 -127 77
0 138 51 170 143 65 186 -47 384 -202 357z m95 -79 c34 -41 51 -119 44 -202
-6 -76 -24 -117 -63 -148 -34 -27 -64 -27 -98 0 -39 31 -57 72 -63 148 -7 83
10 161 44 202 20 24 32 29 68 29 36 0 48 -5 68 -29z"/>
<path d="M7624 716 c-39 -17 -74 -73 -74 -117 0 -54 30 -90 118 -142 88 -52
112 -77 112 -117 0 -31 -8 -44 -39 -59 -53 -28 -125 14 -138 81 -4 19 -12 28
-25 28 -23 0 -25 -7 -31 -92 l-5 -68 28 0 c16 0 30 5 32 11 3 8 15 6 38 -6 24
-12 48 -16 88 -13 48 4 60 10 89 41 29 32 33 44 33 90 0 68 -15 88 -109 147
-93 59 -121 86 -121 117 0 58 86 85 128 40 12 -13 25 -37 28 -55 5 -25 12 -32
30 -32 21 0 24 5 24 39 0 21 3 52 6 70 7 36 -16 52 -47 32 -15 -9 -26 -8 -49
4 -35 18 -75 19 -116 1z"/>
<path d="M3302 698 c2 -15 11 -24 26 -26 22 -3 22 -4 22 -198 0 -153 -3 -194
-13 -194 -7 0 -22 -6 -33 -14 -18 -14 -18 -16 -2 -32 15 -15 27 -16 121 -7 87
9 112 16 151 40 82 52 125 143 113 245 -7 58 -45 128 -85 156 -44 32 -129 52
-220 52 -81 0 -83 -1 -80 -22z m240 -59 c45 -33 68 -88 68 -166 0 -111 -53
-180 -144 -190 l-46 -6 0 190 c0 104 3 193 8 197 12 13 83 -3 114 -25z"/>
<path d="M3744 705 c-8 -21 4 -35 32 -35 l24 0 0 -194 0 -194 -31 -6 c-25 -5
-30 -10 -27 -28 2 -14 10 -23 21 -22 9 0 86 1 170 2 l152 2 -1 67 c-1 65 -2
68 -25 68 -20 0 -25 -7 -32 -42 l-8 -43 -75 0 -74 0 0 89 0 89 34 4 c44 5 56
0 56 -23 0 -14 7 -19 25 -19 24 0 25 2 25 70 0 64 -2 70 -20 70 -13 0 -24 -10
-30 -25 -8 -21 -16 -25 -50 -25 l-40 0 0 80 0 80 75 0 c73 0 75 -1 75 -24 0
-40 11 -56 36 -56 23 0 24 3 24 65 l0 65 -165 0 c-136 0 -167 -3 -171 -15z"/>
<path d="M4702 708 c-5 -7 -20 -47 -32 -88 -13 -41 -26 -79 -29 -85 -4 -5 -25
-63 -46 -128 -32 -96 -44 -120 -65 -130 -13 -7 -26 -20 -28 -30 -3 -15 6 -17
77 -17 66 0 81 3 81 15 0 9 -11 21 -25 27 -27 12 -27 14 -2 86 l11 33 80 -3
79 -3 13 -45 c17 -57 18 -54 -8 -65 -13 -6 -24 -18 -26 -27 -3 -16 6 -18 87
-18 83 0 91 2 91 19 0 12 -11 23 -28 29 -25 8 -31 21 -56 103 -36 121 -85 276
-98 312 -8 20 -17 27 -38 27 -15 0 -32 -6 -38 -12z"/>
<path d="M4992 699 c2 -16 11 -25 26 -27 l22 -3 -2 -197 -3 -197 -27 -3 c-20
-2 -28 -9 -28 -23 0 -17 8 -19 90 -19 82 0 90 2 90 19 0 12 -9 21 -25 25 -24
6 -25 9 -25 86 l0 80 34 0 c32 0 38 -5 80 -75 51 -83 53 -90 31 -99 -17 -6
-20 -32 -5 -38 5 -1 43 -2 85 0 86 4 99 21 40 49 -19 9 -35 20 -35 23 0 4 -21
39 -47 80 -45 70 -46 73 -27 86 66 47 86 96 65 164 -8 27 -23 46 -49 62 -33
20 -52 23 -165 27 l-129 3 4 -23z m231 -38 c51 -19 59 -101 15 -148 -17 -18
-32 -23 -75 -23 l-53 0 0 90 0 90 44 0 c25 0 56 -4 69 -9z"/>
<path d="M5434 705 c-8 -20 4 -35 27 -35 18 0 19 -9 19 -194 l0 -194 -28 -10
c-16 -5 -29 -17 -29 -26 0 -15 12 -16 90 -14 98 3 125 19 68 41 l-32 12 3 75
3 75 32 3 c30 3 36 -2 70 -55 60 -93 65 -103 48 -110 -8 -3 -15 -14 -15 -24 0
-17 8 -19 80 -19 72 0 80 2 80 19 0 12 -9 21 -25 25 -16 4 -40 31 -71 78 -25
40 -48 78 -51 85 -3 7 13 31 36 53 26 26 42 50 43 67 7 125 -46 162 -230 163
-89 0 -114 -3 -118 -15z m250 -56 c21 -16 26 -29 26 -64 0 -26 -7 -51 -17 -64
-20 -25 -78 -41 -117 -34 -26 5 -26 7 -26 94 l0 89 54 0 c39 0 60 -6 80 -21z"/>
<path d="M6303 704 c-7 -18 12 -34 40 -34 16 0 17 -16 17 -194 l0 -194 -30
-11 c-30 -10 -41 -36 -17 -42 6 -2 83 -3 169 -1 l156 3 -2 77 c-2 69 -5 77
-23 80 -18 3 -23 -5 -33 -52 l-11 -56 -70 0 -69 0 0 194 0 195 28 3 c19 2 27
9 27 23 0 18 -8 20 -88 23 -73 2 -88 0 -94 -14z"/>
<path d="M6714 705 c-8 -20 4 -35 27 -35 18 0 19 -9 19 -195 l0 -195 -26 -6
c-18 -5 -24 -12 -22 -28 2 -13 10 -21 21 -20 9 0 82 1 162 2 l145 2 0 81 c0
78 -1 80 -22 77 -19 -2 -25 -12 -32 -55 l-9 -53 -74 0 -73 0 2 192 3 192 25 6
c16 4 26 14 28 28 3 21 0 22 -83 22 -66 0 -87 -3 -91 -15z"/>
<path d="M7215 701 c-42 -25 -61 -49 -86 -106 -27 -59 -31 -156 -10 -226 44
-153 209 -199 308 -86 43 49 57 98 57 193 0 104 -31 175 -96 217 -52 33 -127
37 -173 8z m148 -60 c33 -40 51 -118 45 -200 -6 -80 -31 -137 -69 -156 -43
-23 -68 -18 -104 18 -70 70 -73 271 -5 339 41 40 99 39 133 -1z"/>
</g>
</svg>
