<svg width="3377" height="638" xmlns="http://www.w3.org/2000/svg" xmlns:xlink="http://www.w3.org/1999/xlink" xml:space="preserve" overflow="hidden"><defs><clipPath id="clip0"><rect x="457" y="942" width="3377" height="638"/></clipPath></defs><g clip-path="url(#clip0)" transform="translate(-457 -942)"><path d="M162.225 550.728C153.974 541.109 130.594 507.67 110.424 476.064 90.253 444.457 69.1656 412.851 64.1229 405.064-3.72332 308.412 2.23609 330.857 0.860783 166.87L-0.51452 24.4118 10.9461 12.0443C21.0314 1.05058 26.0741-0.323589 49.9121-0.323589L77.417-0.323589 86.1271 19.3731C90.7115 29.9085 98.0462 51.8956 102.63 68.386 107.214 84.8764 116.842 117.399 124.176 141.219 131.511 164.58 137.47 187.941 137.47 192.522 137.47 197.56 141.596 202.141 148.014 203.515 153.515 204.889 219.986 205.347 295.626 204.889L433.152 203.515 434.527 101.367 435.444-0.323589 477.16-0.323589C506.041-0.323589 518.876 1.50852 519.793 5.63139 529.878 39.0702 557.842 127.476 566.552 152.212 572.512 169.619 577.554 187.025 577.554 191.606 577.554 202.141 600.934 221.38 676.573 271.309L736.626 311.16 782.01 296.96C806.765 289.173 838.854 278.638 852.607 273.599 936.498 243.367 979.59 244.741 1003.89 279.096 1018.1 299.251 1012.6 314.367 985.549 329.025 974.547 335.438 956.21 349.18 945.208 360.173 934.664 371.167 924.579 379.87 923.662 379.87 922.745 379.87 912.66 385.825 902.116 393.154 883.321 405.522 798.513 455.451 749.462 482.935 737.085 489.806 715.539 501.715 702.703 509.044 681.157 520.954 670.614 523.245 606.435 529.199 566.552 532.864 492.746 540.651 442.32 547.064 362.555 556.683 231.447 567.677 190.647 567.677 181.02 567.677 173.227 563.096 162.225 550.728Z" fill="#FF0000" fill-rule="evenodd" transform="matrix(1 0 0 -1 458 1510)"/><path d="M-0.340276 218.175C-4.02098 208.55 1.04003 201.215 11.6219 201.215 16.2231 201.215 20.8239 198.465 21.7439 195.715 25.4246 185.172 26.3447 52.6993 23.1242 35.2809 20.8239 22.9044 17.1432 17.8622 10.2416 16.9457 4.72074 16.0288-0.340276 11.9034-1.26036 7.77768-2.64067 0.443799 1.49989-0.473072 40.6077-0.473072 64.0722-0.473072 84.7761 0.902053 86.6166 2.27718 92.5977 8.2363 83.3958 17.8622 70.9734 17.8622 55.7907 17.8622 51.1896 28.4049 53.9502 59.5753L55.7907 79.2857 84.7761 85.2444C122.043 92.5787 139.527 103.121 150.109 123.29 168.052 156.294 156.09 195.715 123.884 212.217 99.4989 225.051 4.26051 229.177-0.340276 218.175ZM104.1 193.423C119.283 184.255 123.424 175.088 123.424 148.96 123.424 127.874 113.302 117.331 85.2363 109.081 55.3305 99.9129 53.0301 103.58 53.0301 152.168 53.0301 176.005 54.4104 196.632 56.2506 198.007 61.7718 203.966 90.7572 201.215 104.1 193.423Z" fill="#FFFFFF" fill-rule="evenodd" transform="matrix(1 0 0 -1 2315 1167)"/><path d="M96.0407 221.976C92.83 220.597 85.0321 203.591 78.6102 184.288 65.7666 143.842 38.7036 64.3308 30.4472 41.8102 27.2364 33.5371 18.9797 23.8856 11.6406 19.7492 4.30144 16.0723-1.66154 10.0973-1.66154 6.42036-1.66154 0.905184 5.67757-0.473609 35.034-0.473609 64.8493-0.473609 71.73 0.905184 71.73 6.42036 71.73 10.5567 66.6843 15.6124 60.2625 17.9105 53.8406 20.2087 48.795 22.9662 48.795 23.4257 48.795 24.345 52.4645 35.3757 57.0517 47.7849L65.3081 70.7653 100.628 72.1441C139.617 73.5229 139.158 73.9823 147.415 37.6735 150.167 24.345 149.249 22.0469 138.241 17.9105 114.847 9.17795 127.691 1.8245 169.432 0.445707 206.128-0.933086 209.339-0.0141322 209.339 8.25899 209.339 13.7742 205.21 17.9105 198.33 19.7492 185.487 22.9662 185.945 22.5068 151.084 135.11 125.856 216.46 123.104 222.435 113.012 223.354 106.591 223.814 98.793 223.354 96.0407 221.976ZM116.682 140.625C122.186 119.943 126.773 101.559 126.773 99.7203 126.773 93.2858 76.3168 95.5839 76.3168 102.018 76.3168 110.291 100.628 178.772 103.38 178.772 104.756 178.772 110.719 161.767 116.682 140.625Z" fill="#FFFFFF" fill-rule="evenodd" transform="matrix(1 0 0 -1 2475 1167)"/><path d="M2.05917 215.775C2.05917 209.348 6.17642 204.297 13.4957 201.542L24.9323 196.951 24.0175 108.799 22.6451 20.6462 11.2085 17.8915C4.804 16.5142-0.685308 11.4637-1.60049 7.33167-2.97255 0.444519 1.60193-0.47384 38.1985-0.47384 60.6141-0.47384 80.2848 1.36288 81.6572 3.19923 84.8593 8.70903 78.4552 16.5142 68.391 18.3505 60.1565 20.1869 59.2417 24.3193 57.8693 58.2946L56.4968 95.943 72.0507 95.943C86.6893 95.943 89.4342 93.1883 110.935 60.5903 130.148 30.7471 132.893 23.86 127.403 19.7279 123.744 16.9732 120.999 11.0044 120.999 6.87231 120.999 0.90388 126.946-0.47384 157.595-0.47384 187.33-0.47384 194.192 0.90388 194.192 6.41331 194.192 10.5454 189.16 15.5958 182.756 17.8915 175.894 20.6462 161.255 37.6339 146.159 60.131L120.999 98.2387 136.552 112.012C144.787 119.817 153.936 130.378 156.68 135.887 164.457 149.661 163.543 176.29 155.308 192.36 142.957 215.775 125.573 221.744 60.6141 223.58 3.43159 225.417 2.05917 225.417 2.05917 215.775ZM106.818 196.492C124.201 190.523 130.148 180.422 130.148 157.925 130.148 132.673 112.765 118.899 81.6572 118.899L56.9544 118.899 56.9544 160.221 56.9544 201.542 74.7952 201.542C84.4021 201.542 98.5831 199.247 106.818 196.492Z" fill="#FFFFFF" fill-rule="evenodd" transform="matrix(1 0 0 -1 2696 1167)"/><path d="M-0.0252894 218.692C-3.69478 208.619 1.35081 201.75 12.3593 201.75 20.6159 201.75 21.0744 197.629 21.0744 113.378L21.0744 24.5466 9.60744 19.5098C-2.31868 14.0152-6.44663 0.736103 4.10302-0.179423 34.3766-1.55343 90.3362 2.10975 103.638 6.68882 151.342 23.173 179.78 68.5041 175.652 121.619 173.359 151.382 161.433 179.772 144.003 195.798 127.031 211.824 96.2995 220.524 47.6784 223.271 9.60744 225.561 2.72692 225.103-0.0252894 218.692ZM91.2539 195.34C126.573 182.519 140.333 158.709 140.333 111.088 140.333 71.7092 128.408 46.9831 103.638 32.7885 92.1711 26.378 79.7866 23.173 70.6127 24.0885L55.4762 25.4622 54.1001 103.304C53.6413 146.345 54.1001 185.724 55.4762 191.677 58.2281 203.124 66.0259 204.04 91.2539 195.34Z" fill="#FFFFFF" fill-rule="evenodd" transform="matrix(1 0 0 -1 2901 1167)"/><path d="M49.6184 220.836C-12.3969 190.571-20.6655 61.7168 35.8372 16.3194 67.0746-8.90102 116.227-5.23251 141.493 24.1152 180.539 69.0534 182.377 158.472 144.708 200.201 119.902 227.714 80.8558 236.427 49.6184 220.836ZM107.959 198.366C125.874 185.985 135.98 157.096 135.98 118.578 135.98 74.5564 129.549 51.1697 112.093 35.1204 80.8558 6.23144 45.0248 28.7006 35.378 83.2687 29.8654 115.368 33.9999 158.931 45.0248 180.483 57.4278 204.328 86.8276 213.04 107.959 198.366Z" fill="#FFFFFF" fill-rule="evenodd" transform="matrix(1 0 0 -1 3107 1171)"/><path d="M75.9519 261.771C71.8223 257.199 65.3979 247.598 61.2679 239.826 57.1383 232.511 45.6662 214.681 35.1119 200.966-6.1869 145.19-6.1869 143.818 7.57947 104.501 12.6268 90.7852 19.9692 70.6691 24.0988 59.2399 27.7698 47.8103 34.1942 29.9802 38.3242 19.4651L45.6662-0.193923 86.5063-0.193923 127.346-0.193923 127.346 14.8931C126.887 28.6087 120.463 72.498 102.567 182.678 98.896 206.452 94.307 235.712 92.9307 248.055 89.7183 271.372 86.5063 273.658 75.9519 261.771Z" fill="#FF0000" fill-rule="evenodd" transform="matrix(1 0 0 -1 1096 1510)"/><path d="M63.3444 169.154C57.4322 161.395 47.4268 148.617 41.0597 140.403 17.4109 110.74-1.23545 80.1634-0.325967 72.8615 0.583517 68.7543 6.95062 50.9563 14.2272 34.071L27.4163 2.58232 68.802 1.21326 110.643-0.155795 107.459 26.3129C105.64 40.9163 101.547 67.3853 98.3633 84.7271 94.725 102.525 89.7223 131.732 86.9935 149.986 83.8101 167.784 79.7169 182.844 77.8975 182.844 75.6236 182.844 69.2565 176.455 63.3444 169.154Z" fill="#FF0000" fill-rule="evenodd" transform="matrix(1 0 0 -1 692 1510)"/><path d="M35.8875 225.944C13.0422 214.479 5.73174 203.473 3.44725 176.875 1.1624 146.608 9.84367 134.226 50.9656 111.297 95.2857 86.5331 107.622 74.6099 107.622 57.6422 107.622 40.2157 104.424 34.7128 89.8026 27.3752 65.5866 14.5348 34.5167 32.8782 27.6633 63.6037 25.3788 74.1511 22.1802 77.3614 13.4989 77.3614 2.99021 77.3614 2.53316 75.9857 2.53316 51.222 2.53316 36.547 1.1624 20.0381-0.208008 14.5348-2.94954 5.36304-1.57877 3.9873 10.7578 3.9873 18.525 3.9873 25.3788 6.28032 26.2925 9.0318 27.6633 12.7006 33.146 11.7833 43.6551 6.28032 54.6208 0.777356 65.5866-1.0572 83.8629 0.318535 105.795 2.1531 111.277 4.90458 124.528 19.1208 137.778 33.7955 139.606 39.2984 139.606 60.3937 139.606 82.4059 137.778 86.5331 122.243 103.042 112.648 112.673 93.0012 128.265 77.9231 136.978 62.8451 145.691 46.8533 156.697 42.7413 161.283 24.4651 179.168 39.9998 210.352 66.5003 210.352 83.8629 210.352 102.139 193.384 105.795 173.665 108.079 163.117 111.277 159.907 119.502 159.907 130.011 159.907 130.467 161.283 130.467 194.301 130.467 224.568 129.554 228.695 122.243 228.695 117.674 228.695 111.735 226.402 109.45 224.109 106.251 220.899 99.398 221.358 87.9752 226.402 66.9574 235.116 54.1638 235.116 35.8875 225.944Z" fill="#FFFFFF" fill-rule="evenodd" transform="matrix(1 0 0 -1 2141 1578)"/><path d="M73.5586 228.746C11.9899 217.761-20.173 133.081 8.77335 58.014 23.0171 20.938 51.5041-0.117287 88.2615-0.117287 123.641-0.117287 151.668 23.2267 166.371 65.3374 196.237 150.475 144.776 241.105 73.5586 228.746ZM117.208 192.586C132.83 173.819 140.641 138.116 137.425 100.125 134.668 65.3374 126.397 46.5708 108.478 32.3812 92.8561 20.0225 79.0724 20.0225 63.4502 32.3812 45.5311 46.5708 37.2604 65.3374 34.5035 100.125 31.2874 138.116 39.0985 173.819 54.7203 192.586 63.9098 203.571 69.4232 205.859 85.9642 205.859 102.505 205.859 108.019 203.571 117.208 192.586Z" fill="#FFFFFF" fill-rule="evenodd" transform="matrix(1 0 0 -1 2930 1579)"/><path d="M35.0415 225.939C17.1878 218.175 1.16501 192.598 1.16501 172.502 1.16501 147.839 14.8988 131.397 55.1845 107.648 95.4701 83.8978 106.457 72.4797 106.457 54.2108 106.457 40.0523 102.795 34.1151 88.6034 27.264 64.3401 14.4757 31.3792 33.6582 25.4279 64.2588 23.5966 72.9366 19.9342 77.0471 13.983 77.0471 3.45392 77.0471 2.53843 73.8498-0.208411 35.0283L-2.49732 3.97109 10.3207 3.97109C17.6453 3.97109 24.0545 6.2548 24.97 8.9951 26.3434 12.6489 31.8371 11.7354 42.3661 6.2548 53.3531 0.774198 64.3401-1.05291 82.6522 0.317241 104.626 2.14435 110.119 4.88465 123.396 19.0431 136.672 33.6582 138.503 39.1388 138.503 60.1483 138.503 91.2055 131.636 100.34 88.6034 127.287 46.0285 154.233 33.2105 166.565 33.2105 180.724 33.2105 207.213 72.5807 219.545 91.8078 198.993 97.3015 193.055 103.253 182.094 104.626 173.873 106.915 162.454 110.119 159.258 118.36 159.258 127.974 159.258 129.347 161.541 129.347 177.07 129.347 186.661 130.72 200.819 132.094 209.041 135.298 225.482 124.769 232.79 110.577 223.656 103.711 219.545 98.6749 220.002 88.1455 225.482 72.1227 233.704 53.8111 234.16 35.0415 225.939Z" fill="#FFFFFF" fill-rule="evenodd" transform="matrix(1 0 0 -1 3695 1578)"/><path d="M4.26252 217.826C5.18031 210.969 9.31052 206.855 16.1948 205.94 26.2916 204.569 26.2916 204.112 26.2916 115.426 26.2916 45.484 24.9147 26.741 20.3254 26.741 17.1126 26.741 10.2287 23.9982 5.18031 20.3411-3.08086 13.9411-3.08086 13.027 4.26252 5.71267 11.1465-1.14434 16.6535-1.60171 59.7942 2.51249 99.7217 6.62705 111.195 9.82687 129.094 20.7984 166.727 44.5696 186.461 86.1694 180.954 132.798 177.741 159.312 160.302 191.312 141.944 204.112 121.751 218.74 82.741 227.883 40.9776 227.883 3.80345 227.883 2.88566 227.426 4.26252 217.826ZM114.408 190.855C135.06 175.769 145.616 150.626 145.616 114.969 145.616 64.2266 121.292 32.684 79.5286 28.1124L58.4173 25.3696 58.4173 112.227C58.4173 159.769 59.7942 200.455 62.0888 202.283 67.5959 208.226 100.181 200.912 114.408 190.855Z" fill="#FFFFFF" fill-rule="evenodd" transform="matrix(1 0 0 -1 1746 1578)"/><path d="M0.00180998 219.021C-3.67498 209.415 1.84002 203.011 14.709 203.011L25.7393 203.011 25.7393 114.272 25.7393 25.5323 11.4919 22.7874C0.00180998 20.5006-2.29614 18.2134-0.917296 9.97965 0.00180998 3.57611 3.6786-0.540961 8.73423-0.083308 12.8707-0.083308 48.2598 0.373984 86.8662 0.831277L156.725 1.74622 156.266 32.3935C155.806 62.1258 155.347 63.498 144.776 63.498 135.584 63.498 133.286 60.2962 130.069 44.2863L126.392 24.6173 91.9219 24.6173 57.9113 24.6173 57.9113 65.3275 57.9113 106.038 73.5379 107.868C93.7601 110.155 99.2754 107.868 99.2754 97.347 99.2754 90.9431 102.492 88.6563 110.766 88.6563 121.796 88.6563 122.255 89.5709 122.255 120.675 122.255 149.95 121.336 152.695 113.063 152.695 107.089 152.695 102.033 148.121 99.2754 141.259 95.5986 131.654 91.9219 129.824 76.2952 129.824L57.9113 129.824 57.9113 166.418 57.9113 203.011 92.3812 203.011C125.932 203.011 126.852 202.554 126.852 192.033 126.852 173.737 131.907 166.418 143.397 166.418 153.968 166.418 154.427 167.79 154.427 196.15L154.427 225.882 78.5935 225.882C16.0878 225.882 1.84002 224.51 0.00180998 219.021Z" fill="#FFFFFF" fill-rule="evenodd" transform="matrix(1 0 0 -1 1953 1576)"/><path d="M90.7238 218.396C88.4228 215.196 81.5195 196.91 75.9972 178.167 70.0146 159.424 64.0316 142.053 62.651 139.31 60.8103 137.024 51.1461 110.51 41.4818 80.7956 26.7549 36.9098 21.2326 25.9385 11.5683 21.3669 5.58535 18.1671-0.397271 12.2241-1.31759 7.65285-2.69825 0.795453 1.44373-0.118939 34.1182-0.118939 64.492-0.118939 71.3949 1.25283 71.3949 6.73846 71.3949 10.8527 66.3326 16.3383 59.89 19.0811 47.4644 24.5671 47.4644 25.4812 58.9693 58.3957L64.0316 73.4815 100.848 72.1101 137.204 70.7387 143.187 50.1672C151.011 24.1097 151.471 25.4812 139.506 20.4525 133.523 17.7097 128.461 12.2241 127.54 8.10987 126.16 0.795453 130.302-0.118939 167.578-0.118939 205.775-0.118939 209.457 0.795453 209.457 8.56688 209.457 14.0529 204.395 19.0811 196.571 21.8243 185.066 25.4812 182.305 31.4242 170.8 68.9099 154.232 124.224 131.682 195.082 125.7 211.539 122.018 220.682 117.876 223.882 108.212 223.882 101.308 223.882 93.4851 221.139 90.7238 218.396ZM114.655 144.339C121.097 123.31 126.62 103.653 126.62 100.91 126.62 97.7099 116.035 95.8814 98.5474 95.8814 77.8379 95.8814 70.9349 97.2528 72.3156 101.824 73.6963 104.567 80.1389 124.224 87.5021 145.253 94.8654 165.824 100.848 182.739 101.769 182.739 102.229 182.739 107.751 165.367 114.655 144.339Z" fill="#FFFFFF" fill-rule="evenodd" transform="matrix(1 0 0 -1 2301 1574)"/><path d="M3.8 215.384C4.71365 208.082 8.82528 203.974 15.6786 203.061L25.7299 201.692 24.8159 111.776 23.4455 21.8605 11.11 20.4912C1.97233 19.5786-1.68265 16.3835-1.68265 9.99354-1.68265 2.23434 1.97233 1.32139 39.4361 1.32139 76.8996 1.32139 80.5545 2.23434 80.5545 9.99354 80.5545 15.4705 76.4429 19.5786 69.1326 21.4042 58.1677 24.1427 57.711 25.5119 57.711 60.6568L57.711 97.1706 73.2446 97.1706C87.8645 97.1706 90.6058 94.8884 109.794 62.9387 133.095 25.0556 134.009 21.8605 123.958 17.7527 116.191 15.0142 114.82 3.14729 121.673 0.408795 123.958-0.0478607 141.319-0.504157 160.507 0.408795 199.799 2.23434 205.738 9.99354 178.782 22.7734 170.102 26.8812 162.792 31.9019 162.792 33.2711 162.792 35.097 153.197 51.0717 141.319 69.7853 120.76 101.735 120.303 103.104 128.983 109.038 159.137 130.49 168.274 152.854 158.68 183.891 155.025 196.215 148.172 204.887 136.293 212.189 121.216 221.318 112.536 222.687 60.909 224.513L1.97233 225.882 3.8 215.384ZM109.338 198.04C132.638 189.368 136.293 151.942 116.191 130.49 108.424 122.274 101.571 119.992 81.9252 119.992L57.711 119.992 57.711 161.07 57.711 202.148 77.8132 202.148C89.2352 202.148 103.398 200.322 109.338 198.04Z" fill="#FFFFFF" fill-rule="evenodd" transform="matrix(1 0 0 -1 2521 1575)"/><path d="M3.19874 217.025C-0.454651 207.882 5.02562 201.025 15.529 201.025 23.749 201.025 24.2058 196.91 24.2058 112.339L24.2058 23.6527 11.4188 19.0811C4.112 16.7957-1.82472 11.3097-1.82472 7.19548-1.82472 0.338437 3.65555-0.118939 39.2762 0.795453 84.0302 2.16686 96.3604 9.48128 70.3302 19.5385L55.7163 25.0241 57.0864 59.3101 58.4564 93.5956 73.07 94.967C86.7703 96.3384 89.5105 94.053 105.037 69.8243 132.438 27.3099 134.721 22.7383 126.958 19.5385 123.305 18.1671 120.108 13.1385 120.108 8.56688 120.108 0.795453 123.761-0.118939 156.642-0.118939 189.523-0.118939 193.176 0.795453 193.176 8.56688 193.176 14.0529 189.066 18.1671 181.759 19.9955 174.452 21.8243 163.492 34.167 149.335 55.6529 137.918 73.9385 127.414 91.3098 126.044 94.51 124.674 97.7099 131.981 108.681 142.485 118.739 154.358 130.624 161.665 141.596 162.122 149.367 165.318 206.51 141.115 223.425 57.0864 223.882 16.4422 223.882 5.02562 222.51 3.19874 217.025ZM117.368 191.424C126.958 184.11 129.241 178.167 129.241 162.167 129.241 150.281 126.044 138.853 121.478 132.91 112.344 121.482 85.8571 114.167 68.0466 117.367 56.1731 119.653 56.1731 120.567 56.1731 160.339L56.1731 201.025 80.8336 201.025C98.6441 201.025 108.234 198.282 117.368 191.424Z" fill="#FFFFFF" fill-rule="evenodd" transform="matrix(1 0 0 -1 2724 1574)"/><path d="M-0.686704 218.176C-3.87518 209.94 4.77966 202.62 17.5339 202.62 24.8222 202.62 25.2778 195.299 25.2778 113.854L25.2778 25.0888 11.6123 20.0556C-2.0533 15.4799-7.06401 3.58364 3.86836 0.838372 6.60154-0.0768388 41.6765-0.534264 80.851 0.380947L151.912 1.75358 151.001 36.9851C150.089 68.5564 148.723 72.2165 140.524 73.5892 132.324 74.9622 130.047 71.3017 125.491 49.7966L120.481 24.1735 88.5945 24.1735 57.164 24.1735 57.164 112.939 57.164 202.162 69.9186 203.534C78.5731 204.45 82.2176 207.652 82.2176 214.058 82.2176 222.294 78.5731 223.209 42.1318 224.582 8.87908 225.497 2.04648 224.582-0.686704 218.176Z" fill="#FFFFFF" fill-rule="evenodd" transform="matrix(1 0 0 -1 3126 1575)"/><path d="M-1.10178 219.021C-4.77935 209.873 0.737178 203.012 11.31 203.012 19.5845 203.012 20.0443 198.895 20.0443 113.816L20.0443 24.6206 8.09231 21.8761C-0.182484 19.5893-2.94039 16.3873-2.02109 9.06853-1.10178 3.12238 2.57578-0.536985 7.63247-0.0797003 11.7699-0.0797003 45.3278 0.377945 82.1034 0.835231L148.759 1.75016 148.759 38.8007C148.759 74.4787 148.3 75.3936 138.646 74.0214 129.912 73.1065 127.154 68.5325 123.936 48.8635L119.799 24.6206 85.781 24.6206 52.2231 24.6206 53.1424 112.444 54.5215 200.267 66.014 203.012C73.3692 204.841 77.966 209.416 78.8857 215.819 80.2645 225.425 78.8857 225.883 40.7306 225.883 10.3907 225.883 0.737178 224.51-1.10178 219.021Z" fill="#FFFFFF" fill-rule="evenodd" transform="matrix(1 0 0 -1 3314 1576)"/><path d="M47.6463 219.972C28.4436 208.528 19.7566 197.542 8.3262 171.449-4.01851 144.441-5.84717 100.039 3.75419 67.9956 23.8716-2.04202 99.3112-23.0989 144.575 28.628 164.235 51.0585 170.636 73.4886 170.636 116.976 170.636 164.583 156.463 197.084 126.744 216.31 102.969 231.416 68.6781 233.247 47.6463 219.972ZM115.314 192.506C130.402 174.196 138.631 138.49 135.888 100.954 133.145 64.3335 121.715 38.2412 104.341 29.5436 84.6805 19.0152 73.2505 21.3037 56.7907 37.7832 24.7859 69.8265 23.4143 161.836 54.5047 192.964 73.2505 211.275 99.7685 210.817 115.314 192.506Z" fill="#FFFFFF" fill-rule="evenodd" transform="matrix(1 0 0 -1 3495 1578)"/></g></svg>