<svg width="970" height="218" xmlns="http://www.w3.org/2000/svg" xmlns:xlink="http://www.w3.org/1999/xlink" xml:space="preserve" overflow="hidden"><defs><clipPath id="clip0"><rect x="155" y="225" width="970" height="218"/></clipPath></defs><g clip-path="url(#clip0)" transform="translate(-155 -225)"><path d="M94.2031 177.676C92.1699 175.304 86.4093 167.058 81.4394 159.264 76.4694 151.47 71.2736 143.677 70.0311 141.756 53.314 117.923 54.7824 123.458 54.4435 83.0207L54.1047 47.8922 56.9285 44.8425C59.4135 42.1316 60.656 41.7927 66.5295 41.7927L73.3067 41.7927 75.4529 46.6497C76.5824 49.2477 78.3896 54.6694 79.5192 58.7357 80.6487 62.8021 83.0207 70.8218 84.828 76.6953 86.6352 82.456 88.1036 88.2166 88.1036 89.3461 88.1036 90.5886 89.1202 91.7181 90.7016 92.057 92.057 92.3959 108.435 92.5088 127.073 92.3959L160.959 92.057 161.297 66.8684 161.523 41.7927 171.802 41.7927C178.918 41.7927 182.081 42.2446 182.307 43.2611 184.792 51.5067 191.682 73.3067 193.828 79.4062 195.296 83.6984 196.539 87.9907 196.539 89.1202 196.539 91.7181 202.299 96.4622 220.937 108.774L235.734 118.601 246.916 115.099C253.016 113.179 260.922 110.581 264.311 109.339 284.981 101.884 295.599 102.223 301.585 110.694 305.087 115.664 303.732 119.392 297.067 123.006 294.356 124.588 289.838 127.976 287.127 130.687 284.53 133.398 282.045 135.544 281.819 135.544 281.593 135.544 279.108 137.012 276.51 138.82 271.879 141.869 250.982 154.181 238.896 160.959 235.847 162.653 230.538 165.59 227.375 167.397 222.066 170.334 219.468 170.898 203.655 172.367 193.828 173.27 175.642 175.191 163.218 176.772 143.564 179.144 111.259 181.855 101.206 181.855 98.8342 181.855 96.914 180.725 94.2031 177.676Z" stroke="#000000" stroke-width="0.132904" fill="#2E75B6" transform="matrix(1.00222 0 0 -1 155.487 443)"/><path d="M512.131 180.387C511.227 178.014 512.469 176.207 515.067 176.207 516.197 176.207 517.326 175.53 517.552 174.852 518.456 172.254 518.682 139.61 517.891 135.318 517.326 132.268 516.423 131.026 514.728 130.8 513.373 130.574 512.131 129.558 511.905 128.541 511.566 126.734 512.582 126.508 522.183 126.508 527.944 126.508 533.027 126.847 533.479 127.185 534.947 128.654 532.688 131.026 529.638 131.026 525.911 131.026 524.781 133.624 525.459 141.305L525.911 146.162 533.027 147.63C542.176 149.437 546.468 152.035 549.066 157.005 553.471 165.138 550.535 174.852 542.628 178.918 536.641 182.081 513.26 183.097 512.131 180.387ZM537.771 174.287C541.498 172.028 542.515 169.769 542.515 163.331 542.515 158.135 540.03 155.537 533.14 153.504 525.798 151.245 525.233 152.148 525.233 164.121 525.233 169.995 525.572 175.078 526.024 175.417 527.379 176.885 534.495 176.207 537.771 174.287Z" stroke="#000000" stroke-width="0.132904" fill="#2E75B6" transform="matrix(1.00222 0 0 -1 155.487 443)"/><path d="M575.271 181.177C574.481 180.838 572.561 176.659 570.979 171.915 567.817 161.975 561.152 142.434 559.119 136.899 558.328 134.866 556.295 132.494 554.488 131.478 552.681 130.574 551.212 129.106 551.212 128.202 551.212 126.847 553.02 126.508 560.249 126.508 567.591 126.508 569.285 126.847 569.285 128.202 569.285 129.219 568.042 130.461 566.461 131.026 564.88 131.591 563.637 132.268 563.637 132.381 563.637 132.607 564.541 135.318 565.67 138.368L567.704 144.016 576.401 144.354C586.002 144.693 585.889 144.806 587.922 135.883 588.6 132.607 588.374 132.042 585.663 131.026 579.903 128.88 583.065 127.073 593.344 126.734 602.38 126.395 603.171 126.621 603.171 128.654 603.171 130.009 602.154 131.026 600.46 131.478 597.297 132.268 597.41 132.155 588.826 159.829 582.613 179.822 581.936 181.29 579.451 181.516 577.869 181.629 575.949 181.516 575.271 181.177Z" stroke="#000000" stroke-width="0.132904" fill="#2E75B6" transform="matrix(1.00222 0 0 -1 155.487 443)"/><path d="M606.56 179.709C606.56 178.127 607.576 176.885 609.383 176.207L612.207 175.078 611.981 153.391 611.642 131.704 608.819 131.026C607.237 130.687 605.882 129.445 605.656 128.428 605.317 126.734 606.447 126.508 615.483 126.508 621.018 126.508 625.875 126.96 626.213 127.411 627.004 128.767 625.423 130.687 622.938 131.139 620.905 131.591 620.679 132.607 620.34 140.966L620.001 150.228 623.841 150.228C627.456 150.228 628.134 149.55 633.442 141.531 638.187 134.189 638.864 132.494 637.509 131.478 636.605 130.8 635.927 129.332 635.927 128.315 635.927 126.847 637.396 126.508 644.964 126.508 652.306 126.508 654 126.847 654 128.202 654 129.219 652.758 130.461 651.176 131.026 649.482 131.704 645.867 135.883 642.14 141.418L635.927 150.793 639.768 154.181C641.801 156.102 644.06 158.699 644.738 160.055 646.658 163.444 646.432 169.995 644.399 173.948 641.349 179.709 637.057 181.177 621.018 181.629 606.898 182.081 606.56 182.081 606.56 179.709ZM632.426 174.965C636.718 173.496 638.187 171.011 638.187 165.477 638.187 159.264 633.894 155.876 626.213 155.876L620.114 155.876 620.114 166.041 620.114 176.207 624.519 176.207C626.891 176.207 630.393 175.642 632.426 174.965Z" stroke="#000000" stroke-width="0.132904" fill="#2E75B6" transform="matrix(1.00222 0 0 -1 155.487 443)"/><path d="M656.711 180.387C655.807 177.902 657.05 176.207 659.761 176.207 661.794 176.207 661.907 175.191 661.907 154.407L661.907 132.494 659.083 131.252C656.146 129.896 655.13 126.621 657.727 126.395 665.182 126.056 678.963 126.96 682.238 128.089 693.985 132.155 700.989 143.338 699.972 156.44 699.407 163.782 696.47 170.785 692.178 174.739 687.999 178.692 680.431 180.838 668.458 181.516 659.083 182.081 657.389 181.968 656.711 180.387ZM679.189 174.626C687.886 171.463 691.275 165.59 691.275 153.842 691.275 144.128 688.338 138.029 682.238 134.527 679.414 132.946 676.365 132.155 674.106 132.381L670.378 132.72 670.039 151.922C669.926 162.54 670.039 172.254 670.378 173.722 671.056 176.546 672.976 176.772 679.189 174.626Z" stroke="#000000" stroke-width="0.132904" fill="#2E75B6" transform="matrix(1.00222 0 0 -1 155.487 443)"/><path d="M719.739 179.935C704.49 172.48 702.457 140.74 716.35 129.558 724.031 123.345 736.117 124.249 742.33 131.478 751.931 142.547 752.382 164.573 743.12 174.852 737.021 181.629 727.42 183.775 719.739 179.935ZM734.084 174.4C738.489 171.35 740.974 164.234 740.974 154.746 740.974 143.903 739.393 138.142 735.101 134.189 727.42 127.073 718.609 132.607 716.237 146.049 714.882 153.955 715.898 164.686 718.609 169.995 721.659 175.868 728.888 178.014 734.084 174.4Z" stroke="#000000" stroke-width="0.132904" fill="#2E75B6" transform="matrix(1.00222 0 0 -1 155.487 443)"/><path d="M230.199 106.515C229.182 105.385 227.601 103.013 226.584 101.093 225.568 99.286 222.744 94.8808 220.146 91.4922 209.98 77.7119 209.98 77.3731 213.369 67.6591 214.611 64.2705 216.419 59.3005 217.435 56.4767 218.339 53.6528 219.92 49.2477 220.937 46.6497L222.744 41.7927 232.797 41.7927 242.85 41.7927 242.85 45.5202C242.737 48.9088 241.155 59.7523 236.75 86.9741 235.847 92.8477 234.717 100.077 234.378 103.126 233.588 108.887 232.797 109.452 230.199 106.515Z" stroke="#000000" stroke-width="0.132904" fill="#2E75B6" transform="matrix(1.00222 0 0 -1 155.487 443)"/><path d="M127.411 83.5855C125.943 81.6653 123.458 78.5026 121.877 76.4694 116.003 69.1275 111.372 61.5596 111.598 59.7523 111.824 58.7357 113.405 54.3306 115.212 50.1513L118.488 42.3575 128.767 42.0187 139.159 41.6798 138.368 48.2311C137.916 51.8456 136.899 58.3969 136.109 62.6891 135.205 67.0943 133.963 74.3233 133.285 78.8414 132.494 83.2466 131.478 86.9741 131.026 86.9741 130.461 86.9741 128.88 85.3927 127.411 83.5855Z" stroke="#000000" stroke-width="0.132904" fill="#2E75B6" transform="matrix(1.00222 0 0 -1 155.487 443)"/><path d="M478.132 80.6487C472.484 77.8249 470.677 75.114 470.112 68.5627 469.547 61.1078 471.693 58.058 481.859 52.4104 492.816 46.3109 495.865 43.3741 495.865 39.1948 495.865 34.9026 495.075 33.5471 491.46 31.7399 485.474 28.5772 477.793 33.0953 476.098 40.6632 475.534 43.2611 474.743 44.0518 472.597 44.0518 469.999 44.0518 469.886 43.713 469.886 37.6135 469.886 33.999 469.547 29.9326 469.208 28.5772 468.531 26.3181 468.869 25.9793 471.919 25.9793 473.839 25.9793 475.534 26.544 475.76 27.2218 476.098 28.1254 477.454 27.8995 480.052 26.544 482.763 25.1886 485.474 24.7368 489.992 25.0756 495.413 25.5275 496.769 26.2052 500.045 29.7067 503.32 33.3212 503.772 34.6767 503.772 39.8725 503.772 45.2943 503.32 46.3109 499.48 50.3772 497.108 52.7492 492.251 56.5896 488.523 58.7357 484.796 60.8819 480.842 63.5927 479.826 64.7223 475.308 69.1275 479.148 76.8083 485.699 76.8083 489.992 76.8083 494.51 72.629 495.413 67.772 495.978 65.1741 496.769 64.3834 498.802 64.3834 501.4 64.3834 501.513 64.7223 501.513 72.8549 501.513 80.3098 501.287 81.3264 499.48 81.3264 498.35 81.3264 496.882 80.7617 496.317 80.1969 495.526 79.4062 493.832 79.5192 491.008 80.7617 485.812 82.9078 482.65 82.9078 478.132 80.6487Z" stroke="#000000" stroke-width="0.132904" fill="#2E75B6" transform="matrix(1.00222 0 0 -1 155.487 443)"/><path d="M682.012 81.3264C666.877 78.6155 658.97 57.7192 666.086 39.1948 669.588 30.0456 676.591 24.8497 685.627 24.8497 694.324 24.8497 701.214 30.6104 704.829 41.0021 712.171 62.0114 699.52 84.3762 682.012 81.3264ZM692.743 72.4031C696.583 67.772 698.504 58.9617 697.713 49.5865 697.035 41.0021 695.002 36.371 690.597 32.8694 686.756 29.8197 683.368 29.8197 679.527 32.8694 675.122 36.371 673.089 41.0021 672.411 49.5865 671.621 58.9617 673.541 67.772 677.381 72.4031 679.64 75.114 680.996 75.6788 685.062 75.6788 689.128 75.6788 690.484 75.114 692.743 72.4031Z" stroke="#000000" stroke-width="0.132904" fill="#2E75B6" transform="matrix(1.00222 0 0 -1 155.487 443)"/><path d="M861.156 80.8746C856.751 78.9544 852.798 72.629 852.798 67.6591 852.798 61.5596 856.187 57.4933 866.126 51.6197 876.066 45.7461 878.777 42.9223 878.777 38.4041 878.777 34.9026 877.874 33.4342 874.372 31.7399 868.385 28.5772 860.253 33.3212 858.784 40.8891 858.333 43.0352 857.429 44.0518 855.961 44.0518 853.363 44.0518 853.137 43.2611 852.459 33.6601L851.894 25.9793 855.057 25.9793C856.864 25.9793 858.446 26.544 858.672 27.2218 859.01 28.1254 860.366 27.8995 862.964 26.544 865.675 25.1886 868.385 24.7368 872.904 25.0756 878.325 25.5275 879.681 26.2052 882.956 29.7067 886.232 33.3212 886.684 34.6767 886.684 39.8725 886.684 47.5534 884.99 49.8124 874.372 56.4767 863.867 63.1409 860.705 66.1907 860.705 69.6922 860.705 76.2435 870.419 79.2933 875.163 74.2104 876.518 72.742 877.987 70.0311 878.325 67.9979 878.89 65.1741 879.681 64.3834 881.714 64.3834 884.086 64.3834 884.425 64.9482 884.425 68.7886 884.425 71.1606 884.764 74.6622 885.103 76.6953 885.893 80.7617 883.295 82.5689 879.794 80.3098 878.099 79.2933 876.857 79.4062 874.259 80.7617 870.306 82.7948 865.788 82.9078 861.156 80.8746Z" stroke="#000000" stroke-width="0.132904" fill="#2E75B6" transform="matrix(1.00222 0 0 -1 155.487 443)"/><path d="M372.972 78.8414C373.198 77.1471 374.215 76.1306 375.909 75.9047 378.394 75.5658 378.394 75.4529 378.394 53.5399 378.394 36.258 378.055 31.6269 376.925 31.6269 376.135 31.6269 374.44 30.9492 373.198 30.0456 371.165 28.4642 371.165 28.2383 372.972 26.4311 374.666 24.7368 376.022 24.6238 386.639 25.6404 396.466 26.657 399.29 27.4477 403.695 30.1585 412.957 36.0321 417.814 46.3109 416.459 57.8321 415.668 64.3834 411.376 72.2902 406.858 75.4529 401.888 79.0674 392.287 81.3264 382.008 81.3264 372.859 81.3264 372.633 81.2135 372.972 78.8414ZM400.081 72.1772C405.164 68.4497 407.762 62.2373 407.762 53.4269 407.762 40.8891 401.775 33.0953 391.496 31.9658L386.301 31.2881 386.301 52.7492C386.301 64.4964 386.639 74.5492 387.204 75.001 388.56 76.4694 396.579 74.6622 400.081 72.1772Z" stroke="#000000" stroke-width="0.132904" fill="#2E75B6" transform="matrix(1.00222 0 0 -1 155.487 443)"/><path d="M422.897 79.6321C421.994 77.2601 423.349 75.6788 426.512 75.6788L429.223 75.6788 429.223 53.7658 429.223 31.8528 425.721 31.1751C422.897 30.6104 422.333 30.0456 422.671 28.0124 422.897 26.4311 423.801 25.4145 425.044 25.5275 426.06 25.5275 434.758 25.6404 444.246 25.7534L461.414 25.9793 461.302 33.5471C461.189 40.8891 461.076 41.228 458.478 41.228 456.219 41.228 455.654 40.4373 454.863 36.4839L453.96 31.6269 445.488 31.6269 437.13 31.6269 437.13 41.6798 437.13 51.7326 440.97 52.1845C445.94 52.7492 447.295 52.1845 447.295 49.5865 447.295 48.0052 448.086 47.4404 450.119 47.4404 452.83 47.4404 452.943 47.6663 452.943 55.3471 452.943 62.5762 452.717 63.2539 450.684 63.2539 449.216 63.2539 447.973 62.1244 447.295 60.43 446.392 58.058 445.488 57.6062 441.648 57.6062L437.13 57.6062 437.13 66.6425 437.13 75.6788 445.601 75.6788C453.847 75.6788 454.073 75.5658 454.073 72.9679 454.073 68.4497 455.315 66.6425 458.139 66.6425 460.737 66.6425 460.85 66.9813 460.85 73.9845L460.85 81.3264 442.212 81.3264C426.851 81.3264 423.349 80.9876 422.897 79.6321Z" stroke="#000000" stroke-width="0.132904" fill="#2E75B6" transform="matrix(1.00222 0 0 -1 155.487 443)"/><path d="M531.107 79.971C530.542 79.1803 528.848 74.6622 527.492 70.0311 526.024 65.4 524.555 61.1078 524.217 60.43 523.765 59.8653 521.393 53.314 519.021 45.972 515.406 35.1285 514.051 32.4176 511.679 31.2881 510.21 30.4974 508.742 29.029 508.516 27.8995 508.177 26.2052 509.194 25.9793 517.213 25.9793 524.668 25.9793 526.363 26.3181 526.363 27.6736 526.363 28.6902 525.12 30.0456 523.539 30.7233 520.489 32.0788 520.489 32.3047 523.313 40.4373L524.555 44.1648 533.592 43.8259 542.515 43.487 543.983 38.4041C545.904 31.9658 546.017 32.3047 543.08 31.0622 541.611 30.3845 540.369 29.029 540.143 28.0124 539.804 26.2052 540.821 25.9793 549.97 25.9793 559.345 25.9793 560.249 26.2052 560.249 28.1254 560.249 29.4808 559.006 30.7233 557.086 31.401 554.262 32.3047 553.584 33.7731 550.761 43.0352 546.694 56.7026 541.16 74.2104 539.691 78.2767 538.788 80.5358 537.771 81.3264 535.399 81.3264 533.705 81.3264 531.784 80.6487 531.107 79.971Z" stroke="#000000" stroke-width="0.132904" fill="#2E75B6" transform="matrix(1.00222 0 0 -1 155.487 443)"/><path d="M563.863 78.9544C564.089 77.1471 565.106 76.1306 566.8 75.9047L569.285 75.5658 569.059 53.314 568.72 31.0622 565.67 30.7233C563.411 30.4974 562.508 29.7067 562.508 28.1254 562.508 26.2052 563.411 25.9793 572.674 25.9793 581.936 25.9793 582.839 26.2052 582.839 28.1254 582.839 29.4808 581.823 30.4974 580.016 30.9492 577.305 31.6269 577.192 31.9658 577.192 40.6632L577.192 49.6995 581.032 49.6995C584.647 49.6995 585.324 49.1347 590.068 41.228 595.829 31.8528 596.055 31.0622 593.57 30.0456 591.65 29.3679 591.311 26.4311 593.005 25.7534 593.57 25.6404 597.862 25.5275 602.606 25.7534 612.32 26.2052 613.789 28.1254 607.124 31.2881 604.978 32.3047 603.171 33.5471 603.171 33.886 603.171 34.3378 600.799 38.2912 597.862 42.9223 592.779 50.829 592.666 51.1679 594.812 52.6363 602.267 57.9451 604.526 63.4798 602.154 71.1606 601.251 74.2104 599.556 76.3565 596.62 78.1637 592.892 80.4228 590.746 80.7617 577.982 81.2135L563.411 81.5523 563.863 78.9544ZM589.955 74.6622C595.716 72.5161 596.62 63.2539 591.65 57.9451 589.729 55.9119 588.035 55.3471 583.178 55.3471L577.192 55.3471 577.192 65.513 577.192 75.6788 582.162 75.6788C584.985 75.6788 588.487 75.2269 589.955 74.6622Z" stroke="#000000" stroke-width="0.132904" fill="#2E75B6" transform="matrix(1.00222 0 0 -1 155.487 443)"/><path d="M613.789 79.6321C612.885 77.3731 614.24 75.6788 616.838 75.6788 618.871 75.6788 618.984 74.6622 618.984 53.7658L618.984 31.8528 615.822 30.7233C614.014 30.1585 612.546 28.8031 612.546 27.7865 612.546 26.0922 613.902 25.9793 622.712 26.2052 633.781 26.544 636.831 28.3513 630.393 30.8363L626.778 32.1917 627.117 40.6632 627.456 49.1347 631.07 49.4736C634.459 49.8124 635.137 49.2477 638.977 43.2611 645.754 32.7565 646.319 31.6269 644.399 30.8363 643.495 30.4974 642.705 29.2549 642.705 28.1254 642.705 26.2052 643.608 25.9793 651.741 25.9793 659.874 25.9793 660.777 26.2052 660.777 28.1254 660.777 29.4808 659.761 30.4974 657.953 30.9492 656.146 31.401 653.435 34.4508 649.934 39.7596 647.11 44.2777 644.512 48.5699 644.173 49.3606 643.834 50.1513 645.641 52.8622 648.239 55.3471 651.176 58.2839 652.983 60.9948 653.096 62.915 653.887 77.0342 647.901 81.2135 627.117 81.3264 617.064 81.3264 614.24 80.9876 613.789 79.6321ZM642.027 73.3067C644.399 71.4995 644.964 70.0311 644.964 66.0777 644.964 63.1409 644.173 60.3171 643.044 58.8487 640.784 56.0249 634.233 54.2176 629.828 55.0083 626.891 55.5731 626.891 55.799 626.891 65.6259L626.891 75.6788 632.991 75.6788C637.396 75.6788 639.768 75.001 642.027 73.3067Z" stroke="#000000" stroke-width="0.132904" fill="#2E75B6" transform="matrix(1.00222 0 0 -1 155.487 443)"/><path d="M711.945 79.5192C711.154 77.486 713.3 75.6788 716.463 75.6788 718.27 75.6788 718.383 73.8715 718.383 53.7658L718.383 31.8528 714.995 30.6104C711.606 29.4808 710.364 26.544 713.075 25.8663 713.752 25.6404 722.45 25.5275 732.164 25.7534L749.784 26.0922 749.559 34.7896C749.333 42.5834 748.994 43.487 746.961 43.8259 744.927 44.1648 744.363 43.2611 743.233 37.9523L741.991 31.6269 734.084 31.6269 726.29 31.6269 726.29 53.5399 726.29 75.5658 729.453 75.9047C731.599 76.1306 732.503 76.9212 732.503 78.5026 732.503 80.5358 731.599 80.7617 722.563 81.1005 714.317 81.3264 712.623 81.1005 711.945 79.5192Z" stroke="#000000" stroke-width="0.132904" fill="#2E75B6" transform="matrix(1.00222 0 0 -1 155.487 443)"/><path d="M758.369 79.6321C757.465 77.3731 758.821 75.6788 761.419 75.6788 763.452 75.6788 763.565 74.6622 763.565 53.6528L763.565 31.6269 760.628 30.9492C758.595 30.3845 757.917 29.5938 758.143 27.7865 758.369 26.3181 759.273 25.4145 760.515 25.5275 761.532 25.5275 769.777 25.6404 778.813 25.7534L795.192 25.9793 795.192 35.1285C795.192 43.9389 795.079 44.1648 792.707 43.8259 790.561 43.6 789.883 42.4705 789.092 37.6135L788.076 31.6269 779.717 31.6269 771.471 31.6269 771.697 53.314 772.036 75.001 774.86 75.6788C776.667 76.1306 777.797 77.2601 778.023 78.8414 778.362 81.2135 778.023 81.3264 768.648 81.3264 761.193 81.3264 758.821 80.9876 758.369 79.6321Z" stroke="#000000" stroke-width="0.132904" fill="#2E75B6" transform="matrix(1.00222 0 0 -1 155.487 443)"/><path d="M814.959 79.1803C810.214 76.3565 808.068 73.6456 805.245 67.2073 802.195 60.543 801.743 49.5865 804.115 41.6798 809.085 24.3979 827.722 19.2021 838.905 31.9658 843.762 37.5005 845.343 43.0352 845.343 53.7658 845.343 65.513 841.841 73.5326 834.499 78.2767 828.626 82.0041 820.154 82.456 814.959 79.1803ZM831.676 72.4031C835.403 67.885 837.436 59.0746 836.759 49.8124 836.081 40.7762 833.257 34.3378 828.965 32.1917 824.108 29.5938 821.284 30.1585 817.218 34.2249 809.311 42.1316 808.972 64.8352 816.653 72.5161 821.284 77.0342 827.835 76.9212 831.676 72.4031Z" stroke="#000000" stroke-width="0.132904" fill="#2E75B6" transform="matrix(1.00222 0 0 -1 155.487 443)"/></g></svg>