<?xml version="1.0" standalone="no"?>
<!DOCTYPE svg PUBLIC "-//W3C//DTD SVG 20010904//EN"
 "http://www.w3.org/TR/2001/REC-SVG-20010904/DTD/svg10.dtd">
<svg version="1.0" xmlns="http://www.w3.org/2000/svg"
 width="856.000000pt" height="519.000000pt" viewBox="0 0 856.000000 519.000000"
 preserveAspectRatio="xMidYMid meet">

<g transform="translate(0.000000,519.000000) scale(0.100000,-0.100000)"
fill="#000000" stroke="none">
<path d="M839 3738 c-25 -26 -129 -180 -201 -295 -21 -34 -86 -130 -112 -167
-42 -59 -45 -89 -46 -397 l0 -296 25 -27 c23 -24 31 -27 86 -24 l61 3 18 45
c10 25 26 72 35 105 9 33 30 103 45 155 16 52 30 104 32 115 3 20 11 20 323
20 l320 0 3 -222 2 -223 91 0 c63 0 91 4 93 13 12 39 83 265 108 342 34 105
31 101 224 231 l141 94 99 -31 c55 -17 124 -40 154 -51 182 -66 277 -63 329
11 27 37 22 74 -12 94 -95 59 -117 75 -132 100 -9 15 -21 27 -27 27 -6 0 -19
6 -27 14 -9 8 -44 31 -78 50 -35 20 -91 52 -125 73 -64 37 -162 92 -255 145
-47 26 -70 31 -210 44 -87 8 -248 25 -358 39 -173 21 -460 45 -548 45 -20 0
-39 -10 -58 -32z"/>
<path d="M4534 3757 c-8 -21 3 -37 25 -37 25 0 31 -42 31 -215 0 -161 -4 -183
-33 -187 -12 -2 -23 -11 -25 -20 -3 -16 6 -18 91 -18 51 0 96 3 100 6 12 12
-6 34 -28 34 -34 0 -46 23 -43 81 l3 53 64 13 c81 16 119 38 142 83 39 72 13
158 -57 194 -53 28 -260 37 -270 13z m226 -52 c32 -17 43 -41 43 -99 0 -46
-22 -69 -83 -87 -65 -20 -70 -12 -70 94 0 52 3 97 7 100 12 12 73 7 103 -8z"/>
<path d="M5092 3762 c-6 -5 -41 -95 -77 -201 -76 -223 -78 -229 -111 -241 -13
-5 -24 -16 -24 -25 0 -12 15 -15 80 -15 65 0 80 3 80 15 0 9 -11 20 -25 25
-14 5 -25 11 -25 12 0 2 8 26 18 53 l18 50 77 3 c76 3 77 3 88 -25 24 -64 23
-82 -5 -93 -14 -5 -26 -16 -26 -25 0 -12 16 -15 90 -15 80 0 90 2 90 18 0 10
-12 22 -29 29 -21 7 -31 20 -36 44 -9 40 -88 296 -111 357 -16 42 -40 54 -72
34z m46 -175 c12 -45 22 -85 22 -89 0 -14 -110 -9 -110 5 0 18 53 167 59 167
3 0 16 -37 29 -83z"/>
<path d="M5374 3757 c-8 -22 3 -37 27 -37 19 0 19 -7 17 -197 l-3 -197 -25 -6
c-14 -3 -26 -14 -28 -23 -3 -16 5 -17 90 -15 73 2 93 6 93 18 0 8 -11 17 -25
20 -24 6 -25 10 -28 88 l-3 82 34 0 c32 0 38 -6 81 -72 46 -72 55 -98 36 -98
-5 0 -10 -9 -10 -20 0 -18 7 -20 80 -20 65 0 80 3 80 15 0 9 -10 19 -22 24
-29 11 -44 29 -96 113 l-41 67 32 27 c42 35 56 61 57 107 0 50 -23 93 -63 114
-46 25 -274 33 -283 10z m236 -52 c34 -17 45 -49 36 -99 -9 -45 -42 -66 -106
-66 l-50 0 0 90 0 90 45 0 c26 0 59 -7 75 -15z"/>
<path d="M5814 3757 c-8 -22 3 -37 27 -37 18 0 19 -9 19 -195 l0 -195 -25 -10
c-26 -10 -34 -35 -12 -42 25 -10 213 9 242 25 112 57 164 199 119 319 -20 52
-83 114 -133 128 -20 6 -80 14 -133 17 -84 5 -98 4 -104 -10z m199 -51 c77
-28 107 -80 107 -185 -1 -93 -24 -142 -83 -170 -26 -12 -59 -21 -74 -19 l-28
3 -3 180 c-1 98 0 185 2 192 7 16 31 16 79 -1z"/>
<path d="M6375 3754 c-49 -25 -74 -54 -95 -111 -36 -97 -23 -228 31 -304 44
-62 143 -87 211 -53 159 79 154 402 -6 469 -46 19 -103 19 -141 -1z m137 -61
c36 -39 48 -84 48 -174 0 -92 -20 -150 -60 -179 -69 -49 -139 0 -158 110 -12
68 -3 171 20 214 31 61 106 75 150 29z"/>
<path d="M2038 3103 c-9 -10 -23 -31 -32 -48 -9 -16 -34 -55 -57 -85 -63 -86
-79 -113 -79 -136 0 -17 60 -199 95 -286 6 -15 21 -18 97 -18 l91 0 -6 63 c-3
34 -13 103 -21 152 -32 193 -45 282 -51 328 -7 51 -14 56 -37 30z"/>
<path d="M1130 2903 c-126 -161 -148 -196 -140 -224 5 -16 12 -34 17 -41 4 -7
15 -33 24 -58 l15 -45 92 -3 c54 -2 92 1 92 7 0 23 -21 170 -30 206 -5 22 -14
73 -21 113 -6 39 -15 72 -19 72 -5 0 -18 -12 -30 -27z"/>
<path d="M4233 2874 c-50 -25 -66 -49 -71 -107 -4 -46 -1 -57 21 -83 14 -16
51 -43 82 -59 89 -47 125 -81 125 -118 0 -38 -7 -50 -39 -66 -53 -28 -121 12
-136 79 -5 23 -12 30 -31 30 -23 0 -24 -3 -24 -57 0 -32 -3 -68 -6 -80 -6 -20
-3 -23 24 -23 17 0 32 5 34 10 2 7 16 5 37 -6 23 -12 49 -15 89 -12 48 4 60
10 89 41 29 32 33 43 33 91 0 49 -3 57 -38 92 -21 22 -65 54 -98 73 -82 48
-94 60 -94 93 0 63 78 91 126 43 13 -13 27 -38 30 -55 5 -23 12 -30 30 -30 23
0 24 3 24 75 0 66 -2 75 -18 75 -10 0 -23 -5 -28 -10 -7 -7 -22 -6 -47 5 -46
19 -74 19 -114 -1z"/>
<path d="M7621 2872 c-19 -10 -43 -34 -53 -53 -40 -75 -13 -139 83 -190 85
-45 129 -89 129 -125 0 -35 -8 -47 -39 -63 -53 -28 -125 14 -138 81 -4 19 -12
28 -25 28 -23 0 -25 -7 -31 -92 -4 -65 -4 -68 17 -68 12 0 27 5 33 11 8 8 20
6 43 -6 24 -12 49 -16 88 -13 48 4 60 10 89 41 29 32 33 43 33 91 0 70 -23 98
-131 162 -44 26 -84 55 -90 65 -25 48 8 99 64 99 40 0 74 -32 83 -78 5 -25 12
-32 30 -32 21 0 24 5 24 39 0 21 3 52 6 70 7 36 -16 52 -47 32 -15 -9 -26 -8
-49 4 -39 20 -78 19 -119 -3z"/>
<path d="M3302 2858 c2 -15 11 -24 26 -26 22 -3 22 -4 22 -198 0 -161 -2 -194
-14 -194 -8 0 -22 -7 -31 -16 -14 -15 -15 -19 -2 -32 13 -12 31 -13 119 -4
132 13 189 43 234 124 25 45 29 64 29 128 0 64 -4 82 -28 122 -15 26 -39 55
-55 66 -44 32 -129 52 -220 52 -81 0 -83 -1 -80 -22z m240 -59 c45 -33 68 -88
68 -166 0 -111 -53 -180 -144 -190 l-46 -6 0 190 c0 104 3 193 8 197 12 13 83
-3 114 -25z"/>
<path d="M3744 2865 c-8 -21 4 -35 32 -35 l24 0 0 -194 0 -194 -31 -7 c-24 -5
-29 -11 -27 -28 2 -14 10 -22 21 -21 9 0 86 1 170 2 l152 2 0 68 c-1 64 -2 67
-25 67 -21 0 -26 -6 -33 -42 l-8 -43 -75 0 -75 0 3 93 3 92 35 -2 c19 0 38 -1
43 -2 4 -1 7 -10 7 -21 0 -15 7 -20 25 -20 24 0 25 2 25 70 0 64 -2 70 -20 70
-13 0 -24 -10 -30 -25 -8 -21 -16 -25 -50 -25 l-40 0 0 80 0 80 75 0 c73 0 75
-1 75 -24 0 -40 11 -56 36 -56 23 0 24 3 24 65 l0 65 -165 0 c-136 0 -167 -3
-171 -15z"/>
<path d="M4703 2868 c-6 -7 -22 -49 -36 -93 -14 -44 -45 -136 -68 -204 -38
-110 -46 -124 -71 -133 -17 -6 -28 -17 -28 -29 0 -17 8 -19 80 -19 64 0 80 3
80 15 0 8 -10 20 -22 26 -13 6 -25 13 -27 15 -2 2 5 26 15 54 l18 51 80 -3 79
-3 13 -45 c17 -57 18 -54 -8 -65 -13 -6 -24 -18 -26 -27 -3 -16 6 -18 87 -18
83 0 91 2 91 19 0 12 -11 23 -29 29 -24 9 -32 20 -45 69 -9 32 -35 117 -57
188 -22 72 -44 141 -48 155 -6 18 -16 26 -38 28 -16 2 -34 -3 -40 -10z m51
-162 c14 -46 26 -89 26 -95 0 -7 -23 -11 -61 -11 -45 0 -60 3 -57 13 3 6 17
49 33 95 16 45 29 82 31 82 1 0 13 -38 28 -84z"/>
<path d="M4992 2859 c2 -16 11 -25 26 -27 22 -3 22 -4 22 -198 l0 -194 -30 -6
c-21 -5 -30 -12 -30 -25 0 -17 9 -19 90 -19 82 0 90 2 90 19 0 12 -9 21 -25
25 -24 6 -25 9 -25 86 l0 80 34 0 c32 0 38 -5 80 -75 25 -42 46 -78 46 -82 0
-3 -7 -11 -17 -18 -31 -23 -4 -35 78 -35 64 0 79 3 79 15 0 9 -15 22 -32 31
-23 11 -48 41 -82 97 -47 76 -48 81 -30 94 66 46 86 95 65 163 -8 27 -23 46
-49 62 -33 20 -52 23 -165 27 l-129 3 4 -23z m226 -35 c53 -15 64 -103 19
-151 -16 -18 -31 -23 -74 -23 l-53 0 0 90 0 90 43 0 c23 0 52 -3 65 -6z"/>
<path d="M5434 2865 c-8 -20 4 -35 27 -35 18 0 19 -9 19 -194 l0 -194 -30 -10
c-21 -8 -28 -15 -24 -27 5 -13 21 -15 92 -13 93 3 119 20 63 41 l-32 12 3 75
3 75 32 3 c30 3 35 -2 83 -75 44 -67 48 -79 35 -89 -8 -6 -15 -19 -15 -28 0
-13 13 -16 80 -16 72 0 80 2 80 19 0 12 -9 21 -25 25 -16 4 -40 31 -71 78 -25
40 -48 78 -51 85 -3 7 13 30 34 52 44 42 57 82 42 133 -20 73 -78 98 -229 98
-87 0 -112 -3 -116 -15z m250 -56 c21 -16 26 -29 26 -64 0 -26 -7 -51 -17 -64
-19 -24 -71 -38 -115 -33 l-28 3 0 90 0 89 54 0 c39 0 60 -6 80 -21z"/>
<path d="M5984 2861 c-64 -39 -114 -141 -114 -233 0 -55 37 -158 68 -192 50
-54 129 -71 195 -42 99 42 152 198 113 330 -29 97 -98 156 -181 156 -32 0 -62
-7 -81 -19z m149 -60 c50 -60 61 -220 21 -303 -32 -69 -107 -86 -154 -36 -63
68 -65 265 -3 338 20 25 32 30 68 30 36 0 48 -5 68 -29z"/>
<path d="M6304 2866 c-8 -22 4 -36 32 -36 l24 0 0 -194 0 -194 -30 -11 c-30
-10 -41 -36 -17 -42 6 -2 82 -3 169 -1 l156 3 -2 77 c-1 70 -3 77 -23 80 -19
3 -23 -4 -33 -52 l-11 -56 -70 0 -69 0 0 194 0 195 28 3 c19 2 27 9 27 23 0
18 -8 20 -88 23 -70 2 -88 0 -93 -12z"/>
<path d="M6714 2866 c-8 -21 3 -36 27 -36 18 0 19 -9 19 -195 l0 -195 -26 -6
c-18 -5 -24 -12 -22 -28 2 -11 9 -21 16 -20 6 1 80 2 162 3 l150 1 0 81 c0 78
-1 80 -22 77 -19 -2 -25 -12 -32 -55 l-9 -53 -74 0 -73 0 2 192 3 192 25 6
c16 4 25 13 25 25 0 18 -8 20 -83 23 -66 2 -83 0 -88 -12z"/>
<path d="M7214 2861 c-141 -86 -147 -367 -9 -457 87 -57 210 -11 258 96 24 55
29 186 8 243 -16 46 -63 102 -102 123 -40 20 -118 18 -155 -5z m149 -60 c34
-41 51 -119 44 -201 -7 -87 -28 -135 -66 -154 -45 -24 -69 -20 -106 17 -70 70
-73 271 -5 339 41 40 99 39 133 -1z"/>
</g>
</svg>
