<svg width="3935" height="771" xmlns="http://www.w3.org/2000/svg" xmlns:xlink="http://www.w3.org/1999/xlink" xml:space="preserve" overflow="hidden"><defs><clipPath id="clip0"><rect x="231" y="853" width="3935" height="771"/></clipPath></defs><g clip-path="url(#clip0)" transform="translate(-231 -853)"><path d="M188.89 664.102C179.277 652.501 152.039 612.174 128.54 574.058 105.041 535.941 80.4738 497.824 74.5989 488.433-4.44347 371.872 2.49955 398.94 0.897501 201.174L-0.705038 29.3714 12.6471 14.4565C24.3963 1.19822 30.2711-0.459001 58.0427-0.459001L90.087-0.459001 100.234 23.2948C105.575 36.0008 114.12 62.5168 119.461 82.4039 124.802 102.291 136.017 141.513 144.562 170.239 153.107 198.412 160.05 226.585 160.05 232.11 160.05 238.187 164.857 243.71 172.334 245.368 178.743 247.025 256.183 247.578 344.304 247.025L504.525 245.368 506.127 122.178 507.195-0.459001 555.796-0.459001C589.442-0.459001 604.396 1.75045 605.464 6.72262 617.213 47.0491 649.792 153.666 659.939 183.497 666.882 204.489 672.757 225.48 672.757 231.005 672.757 243.71 699.994 266.912 788.116 327.126L858.079 375.186 910.952 358.061C939.791 348.67 977.176 335.964 993.198 329.888 1090.93 293.428 1141.14 295.086 1169.44 336.517 1186 360.824 1179.59 379.053 1148.08 396.731 1135.26 404.465 1113.9 421.037 1101.08 434.295 1088.8 447.553 1077.05 458.049 1075.98 458.049 1074.91 458.049 1063.16 465.231 1050.88 474.069 1028.98 488.985 930.178 549.198 873.033 582.344 858.613 590.63 833.512 604.993 818.557 613.831 793.456 628.195 781.173 630.957 706.403 638.138 659.939 642.557 573.954 651.948 515.206 659.682 422.278 671.283 269.534 684.542 222.002 684.542 210.787 684.542 201.708 679.017 188.89 664.102Z" stroke="#000000" stroke-width="0.458333" stroke-miterlimit="8" fill="#FF0000" fill-rule="evenodd" transform="matrix(1 0 0 -1 232.5 1539.5)"/><path d="M-0.710039 262.68C-4.98861 251.085 0.894857 242.252 13.1964 242.252 18.5448 242.252 23.8936 238.939 24.9633 235.627 29.2419 222.929 30.3117 63.3731 26.5677 42.3933 23.8936 27.4865 19.6145 21.4135 11.5915 20.3096 5.17342 19.2053-0.710039 14.2366-1.7798 9.26781-3.3842 0.434157 1.42949-0.670178 46.8923-0.670178 74.1696-0.670178 98.2381 0.986068 100.378 2.64232 107.331 9.81973 96.6337 21.4135 82.1926 21.4135 64.5422 21.4135 59.1939 34.112 62.4032 71.6543L64.5422 95.3947 98.2381 102.572C141.561 111.405 161.886 124.103 174.187 148.396 195.047 188.147 181.141 235.627 143.701 255.502 115.354 270.961 4.63879 275.93-0.710039 262.68ZM120.702 232.866C138.353 221.824 143.166 210.783 143.166 179.313 143.166 153.917 131.399 141.219 98.7732 131.281 64.0076 120.239 61.3334 124.656 61.3334 183.178 61.3334 211.887 62.9378 236.731 65.0773 238.387 71.4954 245.565 105.191 242.252 120.702 232.866Z" stroke="#000000" stroke-width="0.458333" stroke-miterlimit="8" fill="#FFFFFF" fill-rule="evenodd" transform="matrix(1 0 0 -1 2396.5 1124.5)"/><path d="M111.63 266.468C107.886 264.813 98.7955 244.391 91.3086 221.21 76.3344 172.639 44.7824 77.1542 35.1563 50.1092 31.4128 40.1745 21.7868 28.5836 13.2303 23.6163 4.67383 19.2008-2.27845 12.0254-2.27845 7.60988-2.27845 0.986808 6.27801-0.668961 40.5044-0.668961 75.2648-0.668961 83.2867 0.986808 83.2867 7.60988 83.2867 12.5777 77.404 18.649 69.9172 21.4083 62.4304 24.1681 56.5477 27.4796 56.5477 28.0319 56.5477 29.1354 60.8257 42.3821 66.1738 57.2845L75.7999 84.8813 116.978 86.5371C162.435 88.1929 161.9 88.7446 171.526 45.1418 174.735 29.1354 173.665 26.3761 160.83 21.4083 133.556 10.9219 148.53 2.09082 197.196 0.435055 239.978-1.22071 243.721-0.117209 243.721 9.81792 243.721 16.441 238.908 21.4083 230.887 23.6163 215.913 27.4796 216.448 26.9279 175.804 162.152 146.391 259.845 143.182 267.021 131.417 268.124 123.93 268.676 114.839 268.124 111.63 266.468Z" stroke="#000000" stroke-width="0.458333" stroke-miterlimit="8" fill="#FFFFFF" fill-rule="evenodd" transform="matrix(1 0 0 -1 2582.5 1124.5)"/><path d="M2.03405 258.83C2.03405 251.116 6.84438 245.056 15.396 241.75L28.758 236.241 27.689 130.458 26.0857 24.6752 12.7232 21.3696C5.24061 19.7168-1.173 13.6563-2.24201 8.69784-3.84529 0.433257 1.4993-0.668789 44.258-0.668789 70.4472-0.668789 93.4298 1.5353 95.0335 3.73889 98.7749 10.3507 91.2922 19.7168 79.5335 21.9204 69.9129 24.1244 68.8439 29.0829 67.2406 69.8535L65.6368 115.031 83.8096 115.031C100.913 115.031 104.119 111.726 129.24 72.6078 151.688 36.7962 154.896 28.5321 148.481 23.5732 144.206 20.2675 140.999 13.105 140.999 8.14656 140.999 0.984536 147.947-0.668789 183.757-0.668789 218.498-0.668789 226.516 0.984536 226.516 7.59579 226.516 12.5542 220.636 18.6147 213.154 21.3696 205.136 24.6752 188.033 45.0603 170.395 72.0571L140.999 117.786 159.171 134.315C168.792 143.681 179.481 156.353 182.688 162.964 191.774 179.493 190.705 211.448 181.085 230.731 166.654 258.83 146.343 265.992 70.4472 268.196 3.63733 270.4 2.03405 270.4 2.03405 258.83ZM124.43 235.69C144.74 228.527 151.688 216.406 151.688 189.41 151.688 159.108 131.378 142.579 95.0335 142.579L66.1716 142.579 66.1716 192.165 66.1716 241.75 87.0162 241.75C98.2401 241.75 114.809 238.995 124.43 235.69Z" stroke="#000000" stroke-width="0.458333" stroke-miterlimit="8" fill="none" fill-rule="evenodd" transform="matrix(1 0 0 -1 2839.5 1124.5)"/><path d="M-0.431499 263.302C-4.71918 251.169 1.17682 242.897 14.0404 242.897 23.6883 242.897 24.2245 237.933 24.2245 136.457L24.2245 29.4649 10.8247 23.3984C-3.11136 16.78-7.93531 0.786577 4.39245-0.316574 39.7684-1.97105 105.16 2.44105 120.704 7.95629 176.447 27.8105 209.678 82.409 204.854 146.384 202.174 182.231 188.239 216.425 167.871 235.727 148.039 255.03 112.128 265.509 55.3123 268.818 10.8247 271.575 2.78463 271.023-0.431499 263.302ZM106.232 235.176C147.503 219.734 163.583 191.055 163.583 133.699 163.583 86.2698 149.647 56.4883 120.704 39.3918 107.304 31.6707 92.8319 27.8105 82.112 28.9131L64.424 30.5676 62.8161 124.324C62.2799 176.165 62.8161 223.594 64.424 230.764 67.6401 244.551 76.7517 245.654 106.232 235.176Z" stroke="#000000" stroke-width="0.458333" stroke-miterlimit="8" fill="#FFFFFF" fill-rule="evenodd" transform="matrix(1 0 0 -1 3078.5 1125.5)"/><path d="M57.1734 266.06C-14.8214 229.584-24.4207 74.2832 41.1747 19.5692 77.4386-10.8278 134.501-6.40638 163.832 28.9645 209.162 83.1261 211.295 190.897 167.565 241.19 138.767 274.35 93.4373 284.851 57.1734 266.06ZM124.902 238.979C145.7 224.057 157.433 189.239 157.433 142.815 157.433 89.7579 149.966 61.5719 129.701 42.2283 93.4373 7.41038 51.8407 34.4909 40.6411 100.259 34.2418 138.946 39.0414 191.45 51.8407 217.425 66.2396 246.164 100.37 256.665 124.902 238.979Z" stroke="#000000" stroke-width="0.458333" stroke-miterlimit="8" fill="#FFFFFF" fill-rule="evenodd" transform="matrix(1 0 0 -1 3319.5 1130.5)"/><path d="M88.2785 316.225C83.471 310.701 75.9929 299.102 71.1854 289.711 66.378 280.874 53.024 259.332 40.7384 242.761-7.33613 175.374-7.33613 173.717 8.68855 126.214 14.5644 109.643 23.1109 85.3397 27.9184 71.5308 32.1919 57.7219 39.67 36.1801 44.4775 23.476L53.024-0.275574 100.565-0.275574 148.105-0.275574 148.105 17.9522C147.571 34.523 140.092 87.5494 119.26 220.667 114.987 249.39 109.645 284.74 108.043 299.654 104.304 327.824 100.565 330.586 88.2785 316.225Z" stroke="#000000" stroke-width="0.458333" stroke-miterlimit="8" fill="#FF0000" fill-rule="evenodd" transform="matrix(1 0 0 -1 975.5 1539.5)"/><path d="M74.1132 204.245C67.1888 194.876 55.4708 179.445 48.014 169.524 20.3171 133.701-1.52076 96.7761-0.455439 87.958 0.609884 82.9981 8.06665 61.5043 16.5887 41.1129L32.0352 3.08536 80.5046 1.43203 129.507-0.221295 125.779 31.7434C123.648 49.3795 118.854 81.3447 115.126 102.288 110.865 123.781 105.006 159.053 101.81 181.098 98.0817 202.592 93.288 220.779 91.1574 220.779 88.4943 220.779 81.0375 213.063 74.1132 204.245Z" stroke="#000000" stroke-width="0.458333" stroke-miterlimit="8" fill="#FF0000" fill-rule="evenodd" transform="matrix(1 0 0 -1 504.5 1539.5)"/><path d="M41.7087 272.465C14.9748 258.638 6.41946 245.364 3.74617 213.287 1.07288 176.785 11.2316 161.853 59.3528 134.2 111.217 104.335 125.653 89.9546 125.653 69.4915 125.653 48.4751 121.91 41.8385 104.801 32.9894 76.4629 17.5038 40.1043 39.626 32.0844 76.6815 29.4111 89.4017 25.6679 93.2729 15.5092 93.2729 3.21171 93.2729 2.67676 91.6138 2.67676 61.7487 2.67676 44.0505 1.07288 24.1404-0.530993 17.5038-3.73924 6.44269-2.13536 4.78355 12.301 4.78355 21.3908 4.78355 29.4111 7.54896 30.4801 10.8672 32.0844 15.2918 38.5004 14.1855 50.798 7.54896 63.6304 0.911886 76.4629-1.30013 97.8497 0.35901 123.515 2.57103 129.931 5.88931 145.436 23.0346 160.942 40.7323 163.081 47.3688 163.081 72.8098 163.081 99.3566 160.942 104.335 142.763 124.245 131.535 135.859 108.543 154.663 90.8993 165.171 73.2547 175.679 54.5407 188.953 49.7285 194.483 28.3417 216.052 46.5208 253.661 77.5323 253.661 97.8497 253.661 119.237 233.197 123.515 209.416 126.188 196.696 129.931 192.824 139.555 192.824 151.852 192.824 152.387 194.483 152.387 234.303 152.387 270.805 151.318 275.783 142.763 275.783 137.416 275.783 130.465 273.018 127.792 270.253 124.049 266.381 116.029 266.934 102.662 273.018 78.0668 283.526 63.096 283.526 41.7087 272.465Z" stroke="#000000" stroke-width="0.458333" stroke-miterlimit="8" fill="#FFFFFF" fill-rule="evenodd" transform="matrix(1 0 0 -1 2193.5 1621.5)"/><path d="M84.7917 276.459C13.4833 263.181-23.7675 160.829 9.75823 70.0959 26.2551 25.2826 59.2484-0.166741 101.821-0.166741 142.797-0.166741 175.258 28.0489 192.287 78.9481 226.877 181.853 167.276 291.397 84.7917 276.459ZM135.347 232.752C153.44 210.069 162.486 166.915 158.761 120.996 155.569 78.9481 145.99 56.2646 125.236 39.1139 107.142 24.1759 91.1779 24.1759 73.0847 39.1139 52.3303 56.2646 42.7515 78.9481 39.5589 120.996 35.8339 166.915 44.8803 210.069 62.9735 232.752 73.6166 246.03 80.0023 248.797 99.1599 248.797 118.317 248.797 124.704 246.03 135.347 232.752Z" stroke="#000000" stroke-width="0.458333" stroke-miterlimit="8" fill="#FFFFFF" fill-rule="evenodd" transform="matrix(1 0 0 -1 3113.5 1622.5)"/><path d="M40.4912 272.66C19.5984 263.289 0.848157 232.421 0.848157 208.167 0.848157 178.401 16.9195 158.557 64.0629 129.894 111.206 101.231 124.063 87.4504 124.063 65.4014 124.063 48.3137 119.777 41.1482 103.17 32.8796 74.7768 17.4455 36.2052 40.5966 29.2413 77.5282 27.0983 88.0015 22.8124 92.9623 15.8485 92.9623 3.52663 92.9623 2.45514 89.1041-0.758825 42.2503L-3.43729 4.76763 11.5625 4.76763C20.1339 4.76763 27.6338 7.52382 28.7053 10.8311 30.3128 15.2409 36.7412 14.1383 49.0626 7.52382 61.9199 0.90885 74.7768-1.2958 96.2055 0.357815 121.92 2.56247 128.349 5.87021 143.884 22.9579 159.42 40.5966 161.563 47.2116 161.563 72.5674 161.563 110.051 153.527 121.075 103.17 153.597 53.3485 186.118 38.3482 201.001 38.3482 218.089 38.3482 250.06 84.4196 264.943 106.92 240.138 113.348 232.972 120.313 219.743 121.92 209.821 124.599 196.041 128.349 192.182 137.991 192.182 149.241 192.182 150.848 194.938 150.848 213.679 150.848 225.255 152.456 242.343 154.063 252.265 157.813 272.109 145.491 280.928 128.884 269.904 120.849 264.943 114.956 265.494 102.634 272.109 83.8841 282.031 62.4554 282.582 40.4912 272.66Z" stroke="#000000" stroke-width="0.458333" stroke-miterlimit="8" fill="#FFFFFF" fill-rule="evenodd" transform="matrix(1 0 0 -1 4003.5 1621.5)"/><path d="M4.72841 262.704C5.79682 254.434 10.6044 249.471 18.6167 248.368 30.3687 246.714 30.3687 246.163 30.3687 139.196 30.3687 54.8349 28.7663 32.2289 23.4243 32.2289 19.6851 32.2289 11.6723 28.9202 5.79682 24.5091-3.81836 16.7899-3.81836 15.6875 4.72841 6.86536 12.7407-1.40508 19.1512-1.95678 69.3634 3.00548 115.837 7.96826 129.191 11.8276 150.024 25.0608 193.827 53.7326 216.796 103.907 210.386 160.148 206.647 192.128 186.348 230.724 164.981 246.163 141.477 263.807 96.0726 274.834 47.4622 274.834 4.19396 274.834 3.12555 274.283 4.72841 262.704ZM132.93 230.173C156.968 211.977 169.254 181.652 169.254 138.644 169.254 77.4415 140.943 39.3964 92.3334 33.883L67.761 30.5743 67.761 135.336C67.761 192.679 69.3634 241.752 72.0346 243.957 78.4446 251.125 116.371 242.303 132.93 230.173Z" stroke="#000000" stroke-width="0.458333" stroke-miterlimit="8" fill="#FFFFFF" fill-rule="evenodd" transform="matrix(1 0 0 -1 1733.5 1621.5)"/><path d="M-0.259324 264.544C-4.54139 252.941 1.88121 245.205 16.8679 245.205L29.7136 245.205 29.7136 138.011 29.7136 30.8165 13.1214 27.5013C-0.259324 24.739-2.93586 21.9761-1.32984 12.03-0.259324 4.29439 4.02225-0.678412 9.90984-0.126049 14.7269-0.126049 55.9396 0.426826 100.899 0.979189L182.254 2.08443 181.719 39.105C181.184 75.0204 180.649 76.678 168.338 76.678 157.634 76.678 154.957 72.8104 151.211 53.4711L146.929 29.7118 106.786 29.7118 67.1797 29.7118 67.1797 78.8885 67.1797 128.065 85.3775 130.275C108.927 133.038 115.351 130.275 115.351 117.567 115.351 109.831 119.097 107.068 128.731 107.068 141.576 107.068 142.112 108.173 142.112 145.746 142.112 181.109 141.041 184.425 131.407 184.425 124.449 184.425 118.562 178.899 115.351 170.611 111.068 159.008 106.786 156.798 88.5886 156.798L67.1797 156.798 67.1797 201.001 67.1797 245.205 107.322 245.205C146.393 245.205 147.464 244.653 147.464 231.944 147.464 209.842 153.352 201.001 166.732 201.001 179.042 201.001 179.578 202.659 179.578 236.917L179.578 272.832 91.2651 272.832C18.4735 272.832 1.88121 271.175-0.259324 264.544Z" stroke="#000000" stroke-width="0.458333" stroke-miterlimit="8" fill="#FFFFFF" fill-rule="evenodd" transform="matrix(1 0 0 -1 1974.5 1619.5)"/><path d="M105.027 263.22C102.355 259.363 94.3399 237.322 87.9273 214.73 80.9809 192.138 74.0341 171.2 72.4306 167.893 70.2936 165.138 59.0716 133.179 47.8502 97.3623 30.7506 44.4645 24.3379 31.2398 13.1165 25.7294 6.16963 21.8725-0.776711 14.7091-1.84549 9.19919-3.44891 0.933562 1.36036-0.168624 39.3004-0.168624 74.5682-0.168624 82.5838 1.48491 82.5838 8.097 82.5838 13.0561 76.7058 19.6682 69.2248 22.9747 54.797 29.5868 54.797 30.689 68.156 70.3626L74.0341 88.5458 116.783 86.8928 158.998 85.2398 165.944 60.4439C175.029 29.036 175.563 30.689 161.67 24.6277 154.723 21.3217 148.845 14.7091 147.776 9.75002 146.173 0.933562 150.982-0.168624 194.266-0.168624 238.618-0.168624 242.893 0.933562 242.893 10.3009 242.893 16.9135 237.015 22.9747 227.931 26.2808 214.571 30.689 211.365 37.8519 198.006 83.0359 178.769 149.709 152.585 235.118 145.639 254.954 141.364 265.975 136.555 269.832 125.333 269.832 117.318 269.832 108.233 266.526 105.027 263.22Z" stroke="#000000" stroke-width="0.458333" stroke-miterlimit="8" fill="#FFFFFF" fill-rule="evenodd" transform="matrix(1 0 0 -1 2380.5 1616.5)"/><path d="M4.10785 261.104C5.17936 252.25 10.0009 247.27 18.0369 246.163L29.823 244.503 28.7515 135.491 27.144 26.4781 12.6794 24.8181C1.96534 23.7112-2.32069 19.8379-2.32069 12.0909-2.32069 2.68378 1.96534 1.57692 45.8946 1.57692 89.8238 1.57692 94.1098 2.68378 94.1098 12.0909 94.1098 18.7311 89.2883 23.7112 80.7168 25.9249 67.8592 29.245 67.3237 30.9051 67.3237 73.5141L67.3237 117.783 85.5383 117.783C102.681 117.783 105.896 115.016 128.396 76.281 155.718 30.3519 156.79 26.4781 145.004 21.498 135.896 18.1779 134.289 3.79014 142.325 0.470047 145.004-0.0831306 165.361-0.636308 187.862 0.470047 233.934 2.68378 240.898 12.0909 209.29 27.585 199.112 32.5651 190.54 38.6521 190.54 40.3122 190.54 42.5259 179.29 61.8933 165.361 84.5813 141.254 123.317 140.718 124.977 150.897 132.17 186.254 158.179 196.969 185.293 185.719 222.922 181.433 237.863 173.397 248.377 159.468 257.23 141.789 268.298 131.611 269.958 71.0737 272.171L1.96534 273.831 4.10785 261.104ZM127.861 240.076C155.182 229.562 159.468 184.187 135.896 158.179 126.789 148.218 118.753 145.451 95.7169 145.451L67.3237 145.451 67.3237 195.254 67.3237 245.056 90.8953 245.056C104.288 245.056 120.896 242.843 127.861 240.076Z" stroke="#000000" stroke-width="0.458333" stroke-miterlimit="8" fill="#FFFFFF" fill-rule="evenodd" transform="matrix(1 0 0 -1 2635.5 1618.5)"/><path d="M3.36419 261.567C-0.907703 250.546 5.50014 242.281 17.7811 242.281 27.3924 242.281 27.9261 237.322 27.9261 135.383L27.9261 28.4846 12.9755 22.9747C4.43216 20.2195-2.50942 13.6074-2.50942 8.64784-2.50942 0.382725 3.89793-0.168624 45.5469 0.933562 97.8752 2.58658 112.292 11.403 81.8561 23.5256L64.7695 30.1376 66.3712 71.4642 67.9734 112.791 85.06 114.444C101.079 116.097 104.283 113.342 122.437 84.1381 154.475 32.8929 157.144 27.3829 148.067 23.5256 143.796 21.8725 140.058 15.8113 140.058 10.3009 140.058 0.933562 144.329-0.168624 182.774-0.168624 221.219-0.168624 225.491 0.933562 225.491 10.3009 225.491 16.9135 220.686 21.8725 212.142 24.0764 203.599 26.2808 190.784 41.1585 174.231 67.056 160.882 89.0972 148.601 110.036 146.999 113.893 145.397 117.75 153.941 130.975 166.222 143.097 180.105 157.424 188.648 170.648 189.182 180.015 192.92 248.893 164.62 269.281 66.3712 269.832 18.8491 269.832 5.50014 268.179 3.36419 261.567ZM136.854 230.709C148.067 221.893 150.737 214.73 150.737 195.444 150.737 181.118 146.999 167.342 141.66 160.179 130.98 146.403 100.011 137.587 79.1864 141.444 65.3037 144.199 65.3037 145.301 65.3037 193.24L65.3037 242.281 94.137 242.281C114.962 242.281 126.175 238.975 136.854 230.709Z" stroke="#000000" stroke-width="0.458333" stroke-miterlimit="8" fill="#FFFFFF" fill-rule="evenodd" transform="matrix(1 0 0 -1 2872.5 1616.5)"/><path d="M-1.23945 263.725C-4.98754 253.769 5.18494 244.919 20.1753 244.919 28.7414 244.919 29.277 236.069 29.277 137.612L29.277 30.3043 13.2158 24.2198C-2.84592 18.6883-8.73514 4.30713 4.11413 0.988428 7.32657-0.117975 48.5507-0.670921 94.5932 0.435483L178.112 2.09483 177.041 44.6855C175.971 82.8515 174.365 87.2766 164.728 88.936 155.091 90.5953 152.414 86.1702 147.061 60.1731L141.171 29.1979 103.695 29.1979 66.7535 29.1979 66.7535 136.505 66.7535 244.365 81.7439 246.025C91.9164 247.131 96.1992 251.003 96.1992 258.747 96.1992 268.703 91.9164 269.81 49.0858 271.469 10.0034 272.575 1.9725 271.469-1.23945 263.725Z" stroke="#000000" stroke-width="0.458333" stroke-miterlimit="8" fill="#FFFFFF" fill-rule="evenodd" transform="matrix(1 0 0 -1 3340.5 1618.5)"/><path d="M-1.73434 264.545C-5.99667 253.494 0.396816 245.205 12.6502 245.205 22.24 245.205 22.7725 240.233 22.7725 137.461L22.7725 29.7159 8.92097 26.4008C-0.668764 23.638-3.8655 19.77-2.79992 10.9297-1.73434 3.74658 2.52798-0.673789 8.38793-0.121436 13.1828-0.121436 52.0747 0.43143 94.6955 0.983784L171.946 2.089 171.946 46.8445C171.946 89.9424 171.413 91.0476 160.225 89.3901 150.103 88.2848 146.906 82.7593 143.177 59.0004L138.382 29.7159 98.9578 29.7159 60.0659 29.7159 61.1314 135.803 62.7301 241.89 76.0491 245.205C84.5732 247.416 89.9006 252.941 90.9662 260.677 92.5648 272.28 90.9662 272.832 46.7468 272.832 11.5847 272.832 0.396816 271.175-1.73434 264.545Z" stroke="#000000" stroke-width="0.458333" stroke-miterlimit="8" fill="#FFFFFF" fill-rule="evenodd" transform="matrix(1 0 0 -1 3560.5 1619.5)"/><path d="M55.1466 266.054C32.7251 252.212 22.5817 238.922 9.23545 207.361-5.17856 174.692-7.31358 120.983 3.89715 82.2225 27.3864-2.49497 115.472-27.9653 168.324 34.6035 191.279 61.7355 198.753 88.8674 198.753 141.47 198.753 199.055 182.203 238.369 147.503 261.625 119.743 279.897 79.7041 282.112 55.1466 266.054ZM134.157 232.832C151.774 210.683 161.383 167.494 158.18 122.09 154.977 77.7928 141.631 46.2316 121.344 35.7111 98.3886 22.9759 85.0424 25.7445 65.8237 45.6781 28.4541 84.4377 26.8527 195.733 63.1545 233.386 85.0424 255.534 116.006 254.98 134.157 232.832Z" stroke="#000000" stroke-width="0.458333" stroke-miterlimit="8" fill="#FFFFFF" fill-rule="evenodd" transform="matrix(1 0 0 -1 3770.5 1622.5)"/></g></svg>