<svg width="3311" height="649" xmlns="http://www.w3.org/2000/svg" xmlns:xlink="http://www.w3.org/1999/xlink" xml:space="preserve" overflow="hidden"><defs><clipPath id="clip0"><rect x="856" y="914" width="3311" height="649"/></clipPath></defs><g clip-path="url(#clip0)" transform="translate(-856 -914)"><path d="M158.93 558.427C150.842 548.673 127.924 514.763 108.152 482.711 88.3803 450.66 67.7099 418.608 62.7669 410.711-3.73869 312.698 2.10309 335.459 0.755149 169.162L-0.593212 24.6977 10.6412 12.1561C20.5268 1.00755 25.4698-0.385963 48.8366-0.385963L75.7984-0.385963 84.3361 19.588C88.8299 30.2722 96.0196 52.5689 100.513 69.2915 105.007 86.0141 114.443 118.995 121.633 143.149 128.823 166.84 134.665 190.53 134.665 195.176 134.665 200.285 138.709 204.93 145 206.324 150.392 207.717 215.55 208.182 289.694 207.717L424.502 206.324 425.851 102.737 426.749-0.385963 467.641-0.385963C495.951-0.385963 508.533 1.47191 509.432 5.65289 519.318 39.5625 546.729 129.214 555.267 154.298 561.108 171.95 566.051 189.601 566.051 194.246 566.051 204.93 588.969 224.44 663.113 275.072L721.979 315.485 766.466 301.085C790.732 293.189 822.187 282.504 835.668 277.395 917.901 246.737 960.141 248.13 983.957 282.969 997.887 303.408 992.495 318.737 965.982 333.601 955.198 340.105 937.224 354.04 926.439 365.188 916.104 376.337 906.217 385.163 905.319 385.163 904.42 385.163 894.534 391.202 884.199 398.633 865.775 411.176 782.643 461.808 734.562 489.679 722.429 496.646 701.309 508.724 688.727 516.156 667.607 528.234 657.271 530.556 594.361 536.595 555.267 540.311 482.919 548.208 433.49 554.711 355.301 564.466 226.784 575.615 186.791 575.615 177.354 575.615 169.715 570.969 158.93 558.427Z" stroke="#000000" stroke-width="0.458333" stroke-miterlimit="8" fill="#FF0000" fill-rule="evenodd" transform="matrix(1 0 0 -1 857.5 1491.5)"/><path d="M-0.595517 221C-4.18399 211.246 0.750526 203.814 11.068 203.814 15.5537 203.814 20.0398 201.027 20.937 198.24 24.5255 187.557 25.4227 53.3177 22.2826 35.6667 20.0398 23.1252 16.4509 18.0158 9.72193 17.0871 4.339 16.158-0.595517 11.9776-1.49274 7.79729-2.83837 0.365269 1.19893-0.563841 39.329-0.563841 62.2068-0.563841 82.3933 0.829609 84.1877 2.22306 90.0195 8.26163 81.0476 18.0158 68.9358 18.0158 54.1322 18.0158 49.6465 28.6995 52.3382 60.2849L54.1322 80.2584 82.3933 86.2965C118.729 93.7286 135.775 104.412 146.093 124.85 163.588 158.293 151.925 198.24 120.523 214.962 96.7484 227.968 3.8906 232.148-0.595517 221ZM101.234 195.917C116.038 186.628 120.075 177.338 120.075 150.861 120.075 129.495 110.206 118.812 82.8421 110.45 53.6838 101.161 51.4409 104.877 51.4409 154.113 51.4409 178.267 52.7866 199.169 54.581 200.562 59.9639 206.601 88.225 203.814 101.234 195.917Z" stroke="#000000" stroke-width="0.458333" stroke-miterlimit="8" fill="#FFFFFF" fill-rule="evenodd" transform="matrix(1 0 0 -1 2677.5 1142.5)"/><path d="M93.4792 223.873C90.344 222.482 82.7312 205.325 76.4617 185.849 63.9223 145.043 37.5007 64.8211 29.4398 42.0992 26.3051 33.7526 18.2442 24.0145 11.079 19.8413 3.91386 16.1315-1.90797 10.1032-1.90797 6.39344-1.90797 0.829067 5.2572-0.562028 33.9183-0.562028 63.0267-0.562028 69.7442 0.829067 69.7442 6.39344 69.7442 10.5672 64.818 15.668 58.5486 17.9862 52.2791 20.3048 47.353 23.087 47.353 23.551 47.353 24.4781 50.9353 35.6073 55.4138 48.1276L63.4747 71.3131 97.9572 72.7041C136.023 74.0952 135.575 74.5588 143.635 37.9259 146.322 24.4781 145.427 22.1599 134.679 17.9862 111.84 9.17606 124.379 1.75661 165.131 0.365512 200.957-1.02558 204.092-0.0984732 204.092 8.24852 204.092 13.8129 200.061 17.9862 193.344 19.8413 180.805 23.087 181.253 22.6235 147.218 136.232 122.587 218.309 119.901 224.337 110.049 225.264 103.779 225.728 96.1658 225.264 93.4792 223.873Z" stroke="#000000" stroke-width="0.458333" stroke-miterlimit="8" fill="#FFFFFF" fill-rule="evenodd" transform="matrix(1 0 0 -1 2834.5 1142.5)"/><path d="M1.71429 217.609C1.71429 211.124 5.76841 206.029 12.9757 203.25L24.2371 198.617 23.3361 109.681 21.9849 20.7455 10.7231 17.9663C4.41676 16.5767-0.988595 11.4814-1.88956 7.31264-3.24079 0.364257 1.2636-0.562279 37.3004-0.562279 59.3725-0.562279 78.7421 1.29079 80.0938 3.14344 83.2469 8.70223 76.9406 16.5767 67.0304 18.4294 58.9222 20.2824 58.0212 24.4512 56.67 58.7288L55.3184 96.7116 70.6343 96.7116C85.0488 96.7116 87.7513 93.9324 108.923 61.0445 127.842 30.9361 130.545 23.9882 125.139 19.819 121.536 17.0398 118.833 11.0179 118.833 6.84916 118.833 0.827741 124.689-0.562279 154.87-0.562279 184.149-0.562279 190.906 0.827741 190.906 6.3861 190.906 10.5549 185.951 15.6502 179.645 17.9663 172.888 20.7455 158.473 37.8841 143.608 60.5814L118.833 99.0278 134.149 112.924C142.257 120.799 151.266 131.452 153.969 137.011 161.626 150.907 160.725 177.773 152.617 193.986 140.455 217.609 123.337 223.631 59.3725 225.483 3.06552 227.337 1.71429 227.337 1.71429 217.609ZM104.869 198.154C121.986 192.132 127.842 181.942 127.842 159.245 127.842 133.768 110.725 119.872 80.0938 119.872L55.7691 119.872 55.7691 161.561 55.7691 203.25 73.3368 203.25C82.7962 203.25 96.7605 200.933 104.869 198.154Z" stroke="#000000" stroke-width="0.458333" stroke-miterlimit="8" fill="none" fill-rule="evenodd" transform="matrix(1 0 0 -1 3050.5 1142.5)"/><path d="M-0.36304 221.524C-3.97046 211.316 0.99011 204.356 11.8128 204.356 19.93 204.356 20.3812 200.181 20.3812 114.805L20.3812 24.7897 9.10734 19.6857C-2.61773 14.1175-6.67635 0.661771 3.69557-0.266343 33.459-1.6583 88.4757 2.05373 101.553 6.69387 148.453 23.3978 176.412 69.3332 172.353 123.157 170.099 153.317 158.374 182.085 141.238 198.324 124.552 214.564 94.3382 223.38 46.5368 226.164 9.10734 228.484 2.34284 228.02-0.36304 221.524ZM89.3776 197.86C124.101 184.869 137.63 160.741 137.63 112.485 137.63 72.5814 125.905 47.5253 101.553 33.1415 90.2796 26.6455 78.1038 23.3978 69.0846 24.3255L54.2029 25.7174 52.8501 104.597C52.3989 148.213 52.8501 188.116 54.2029 194.148 56.9087 205.748 64.5748 206.676 89.3776 197.86Z" stroke="#000000" stroke-width="0.458333" stroke-miterlimit="8" fill="#FFFFFF" fill-rule="evenodd" transform="matrix(1 0 0 -1 3251.5 1143.5)"/><path d="M48.1162 223.645C-12.4734 192.983-20.552 62.441 34.652 16.4495 65.1711-9.10163 113.194-5.38507 137.879 24.347 176.028 69.8741 177.823 160.464 141.02 202.739 116.784 230.613 78.6353 239.44 48.1162 223.645ZM105.115 200.881C122.619 188.338 132.493 159.07 132.493 120.047 132.493 75.4487 126.209 51.7561 109.154 35.4962 78.6353 6.22902 43.6283 28.9924 34.2029 84.2755 28.8173 116.795 32.8566 160.929 43.6283 182.763 55.7462 206.92 84.47 215.747 105.115 200.881Z" stroke="#000000" stroke-width="0.458333" stroke-miterlimit="8" fill="#FFFFFF" fill-rule="evenodd" transform="matrix(1 0 0 -1 3453.5 1147.5)"/><path d="M74.6516 265.629C70.5862 260.989 64.2624 251.245 60.197 243.357 56.1317 235.934 44.8391 217.839 34.4499 203.919-6.2037 147.314-6.2037 145.922 7.34736 106.02 12.3162 92.1004 19.5434 71.6853 23.6088 60.0858 27.2226 48.4864 33.5464 30.3912 37.6118 19.7198L44.8391-0.231482 85.0411-0.231482 125.243-0.231482 125.243 15.0799C124.791 28.9993 118.467 73.5415 100.851 185.36 97.2372 209.487 92.7199 239.182 91.3649 251.709 88.203 275.372 85.0411 277.692 74.6516 265.629Z" stroke="#000000" stroke-width="0.458333" stroke-miterlimit="8" fill="#FF0000" fill-rule="evenodd" transform="matrix(1 0 0 -1 1482.5 1491.5)"/><path d="M62.1411 172.823C56.3353 164.895 46.5101 151.838 40.2579 143.443 17.0351 113.132-1.2751 81.8875-0.381868 74.426 0.511364 70.2291 6.76358 52.0421 13.909 34.7878L26.8603 2.61069 67.5 1.21172 108.587-0.18725 105.461 26.8598C103.674 41.7827 99.6547 68.8301 96.5286 86.551 92.9561 104.738 88.0436 134.583 85.3639 153.237 82.2378 171.424 78.2184 186.813 76.432 186.813 74.1991 186.813 67.9469 180.284 62.1411 172.823Z" stroke="#000000" stroke-width="0.458333" stroke-miterlimit="8" fill="#FF0000" fill-rule="evenodd" transform="matrix(1 0 0 -1 1086.5 1492.5)"/><path d="M34.8836 228.832C12.5243 217.219 5.369 206.071 3.13316 179.131 0.897319 148.475 9.39368 135.933 49.6405 112.709 93.0175 87.6263 105.092 75.5492 105.092 58.3631 105.092 40.7122 101.961 35.1385 87.6514 27.7065 63.9507 14.7007 33.5417 33.2802 26.8342 64.4016 24.5984 75.0848 21.4677 78.3361 12.9714 78.3361 2.68616 78.3361 2.23874 76.9426 2.23874 51.8602 2.23874 36.9962 0.897319 20.2745-0.444102 14.7007-3.12736 5.41095-1.78594 4.01751 10.2881 4.01751 17.8904 4.01751 24.5984 6.34006 25.4924 9.12695 26.8342 12.8429 32.2003 11.9138 42.4855 6.34006 53.2181 0.765855 63.9507-1.09193 81.8379 0.301518 103.303 2.1593 108.669 4.94619 121.638 19.3458 134.606 34.2094 136.395 39.7831 136.395 61.15 136.395 83.4455 134.606 87.6263 119.402 104.348 110.011 114.102 90.7816 129.895 76.0248 138.72 61.2675 147.546 45.6158 158.694 41.5911 163.338 23.704 181.453 38.9083 213.039 64.8452 213.039 81.8379 213.039 99.7254 195.853 103.303 175.88 105.539 165.196 108.669 161.945 116.719 161.945 127.004 161.945 127.451 163.338 127.451 196.782 127.451 227.438 126.557 231.619 119.402 231.619 114.93 231.619 109.116 229.296 106.88 226.974 103.75 223.722 97.0422 224.187 85.8625 229.296 65.2922 238.122 52.7711 238.122 34.8836 228.832Z" stroke="#000000" stroke-width="0.458333" stroke-miterlimit="8" fill="#FFFFFF" fill-rule="evenodd" transform="matrix(1 0 0 -1 2507.5 1560.5)"/><path d="M71.5559 232.703C11.3786 221.527-20.0575 135.374 8.235 59.0016 22.1568 21.281 49.9999-0.14035 85.927-0.14035 120.507-0.14035 147.901 23.6095 162.272 66.4527 191.462 153.071 141.164 245.276 71.5559 232.703ZM114.22 195.914C129.488 176.82 137.123 140.497 133.979 101.845 131.285 66.4527 123.201 47.3594 105.687 32.9232 90.4177 20.3495 76.9453 20.3495 61.6764 32.9232 44.1617 47.3594 36.0781 66.4527 33.3839 101.845 30.2403 140.497 37.8746 176.82 53.1435 195.914 62.1253 207.09 67.5142 209.419 83.6813 209.419 99.8484 209.419 105.238 207.09 114.22 195.914Z" stroke="#000000" stroke-width="0.458333" stroke-miterlimit="8" fill="#FFFFFF" fill-rule="evenodd" transform="matrix(1 0 0 -1 3280.5 1561.5)"/><path d="M34.1108 229.814C16.5102 221.916 0.714509 195.898 0.714509 175.456 0.714509 150.367 14.2534 133.641 53.9682 109.483 93.6826 85.3233 104.514 73.7083 104.514 55.1241 104.514 40.7216 100.903 34.6821 86.913 27.7128 62.9939 14.7041 30.5002 34.2172 24.6336 65.3453 22.8283 74.1728 19.2177 78.3541 13.3512 78.3541 2.97092 78.3541 2.06827 75.1021-0.639254 35.611L-2.89566 4.01843 9.74057 4.01843C16.9613 4.01843 23.2794 6.34152 24.1821 9.12904 25.5363 12.8459 30.9517 11.9166 41.3316 6.34152 52.1629 0.766031 62.9939-1.09218 81.046 0.301587 102.708 2.1598 108.124 4.94775 121.212 19.3503 134.3 34.2172 136.105 39.7927 136.105 61.164 136.105 92.757 129.335 102.049 86.913 129.46 44.9422 156.871 32.3055 169.416 32.3055 183.818 32.3055 210.765 71.1173 223.309 90.072 202.402 95.4875 196.363 101.355 185.212 102.708 176.849 104.965 165.234 108.124 161.982 116.248 161.982 125.725 161.982 127.079 164.305 127.079 180.101 127.079 189.858 128.433 204.261 129.786 212.624 132.946 229.349 122.566 236.783 108.575 227.491 101.806 223.309 96.8417 223.774 86.4614 229.349 70.6662 237.712 52.614 238.176 34.1108 229.814Z" stroke="#000000" stroke-width="0.458333" stroke-miterlimit="8" fill="#FFFFFF" fill-rule="evenodd" transform="matrix(1 0 0 -1 4029.5 1560.5)"/><path d="M3.97363 221.627C4.87149 214.649 8.91166 210.463 15.645 209.533 25.5211 208.137 25.5211 207.672 25.5211 117.43 25.5211 46.2608 24.1745 27.1895 19.6852 27.1895 16.5429 27.1895 9.80911 24.3981 4.87149 20.6768-3.20885 14.1646-3.20885 13.2346 3.97363 5.79187 10.707-1.18538 16.0941-1.65081 58.2912 2.53553 97.3463 6.72231 108.569 9.97822 126.076 21.1422 162.887 45.3307 182.19 87.6601 176.803 135.107 173.661 162.086 156.602 194.647 138.646 207.672 118.894 222.557 80.7369 231.86 39.886 231.86 3.52449 231.86 2.62663 231.395 3.97363 221.627ZM111.711 194.182C131.912 178.832 142.237 153.248 142.237 116.965 142.237 65.3325 118.445 33.2363 77.5946 28.5849L56.9446 25.7936 56.9446 114.174C56.9446 162.551 58.2912 203.95 60.536 205.811 65.9228 211.858 97.795 204.416 111.711 194.182Z" stroke="#000000" stroke-width="0.458333" stroke-miterlimit="8" fill="#FFFFFF" fill-rule="evenodd" transform="matrix(1 0 0 -1 2120.5 1560.5)"/><path d="M-0.218452 222.876C-3.82563 213.1 1.58472 206.583 14.2094 206.583L25.0305 206.583 25.0305 116.273 25.0305 25.9626 11.0534 23.1696C-0.218452 20.8424-2.47315 18.5147-1.12025 10.1352-0.218452 3.61798 3.38831-0.571556 8.34797-0.106195 12.4058-0.106195 47.123 0.359597 84.9967 0.824958L153.529 1.75611 153.079 32.9456C152.628 63.204 152.177 64.6005 141.806 64.6005 132.789 64.6005 130.535 61.3421 127.379 45.0489L123.772 25.0319 89.956 25.0319 56.5917 25.0319 56.5917 66.4628 56.5917 107.894 71.9213 109.756C91.7596 112.083 97.1703 109.756 97.1703 99.0489 97.1703 92.5317 100.326 90.204 108.442 90.204 119.263 90.204 119.714 91.1351 119.714 122.79 119.714 152.583 118.812 155.376 110.696 155.376 104.835 155.376 99.8753 150.721 97.1703 143.739 93.5631 133.963 89.956 132.101 74.6263 132.101L56.5917 132.101 56.5917 169.342 56.5917 206.583 90.4071 206.583C123.321 206.583 124.222 206.118 124.222 195.411 124.222 176.79 129.182 169.342 140.454 169.342 150.824 169.342 151.275 170.738 151.275 199.6L151.275 229.859 76.881 229.859C15.5619 229.859 1.58472 228.462-0.218452 222.876Z" stroke="#000000" stroke-width="0.458333" stroke-miterlimit="8" fill="#FFFFFF" fill-rule="evenodd" transform="matrix(1 0 0 -1 2322.5 1558.5)"/><path d="M88.3083 222.274C86.0619 219.017 79.3226 200.405 73.9307 181.327 68.0901 162.25 62.2491 144.568 60.9009 141.776 59.104 139.45 49.6684 112.462 40.2332 82.2169 25.8557 37.5478 20.4638 26.3803 11.0285 21.727 5.18753 18.4701-0.653072 12.421-1.55172 7.76819-2.89991 0.78834 1.14381-0.142393 33.0444-0.142393 62.6982-0.142393 69.4379 1.25392 69.4379 6.83746 69.4379 11.0251 64.4955 16.6087 58.2054 19.4009 46.0742 24.9844 46.0742 25.9151 57.3067 59.4172L62.2491 74.7719 98.193 73.376 133.688 71.9802 139.529 51.0415C147.167 24.5192 147.616 25.9151 135.935 20.7967 130.094 18.005 125.151 12.421 124.253 8.23334 122.905 0.78834 126.949-0.142393 163.342-0.142393 200.634-0.142393 204.228 0.78834 204.228 8.69849 204.228 14.2825 199.286 19.4009 191.648 22.1926 180.415 25.9151 177.72 31.9638 166.487 70.1191 150.312 126.421 128.296 198.544 122.455 215.295 118.861 224.601 114.817 227.858 105.382 227.858 98.6426 227.858 91.0043 225.066 88.3083 222.274Z" stroke="#000000" stroke-width="0.458333" stroke-miterlimit="8" fill="#FFFFFF" fill-rule="evenodd" transform="matrix(1 0 0 -1 2664.5 1556.5)"/><path d="M3.4321 220.128C4.32734 212.663 8.35571 208.465 15.0698 207.532L24.917 206.132 24.0218 114.227 22.6787 22.3228 10.5936 20.9233C1.64203 19.9901-1.93893 16.7247-1.93893 10.1934-1.93893 2.26261 1.64203 1.32944 38.3448 1.32944 75.0475 1.32944 78.6285 2.26261 78.6285 10.1934 78.6285 15.7915 74.6001 19.9901 67.4386 21.8564 56.6962 24.6555 56.2488 26.055 56.2488 61.9772L56.2488 99.299 71.467 99.299C85.79 99.299 88.4757 96.9663 107.275 64.3099 130.102 25.5887 130.997 22.3228 121.15 18.1242 113.541 15.3252 112.198 3.19534 118.912 0.396281 121.15-0.0700846 138.159-0.53645 156.958 0.396281 195.451 2.26261 201.27 10.1934 174.862 23.256 166.357 27.4545 159.196 32.5863 159.196 33.9858 159.196 35.8521 149.796 52.1801 138.159 71.3076 118.017 103.964 117.569 105.363 126.074 111.428 155.615 133.355 164.567 156.215 155.168 187.938 151.587 200.534 144.873 209.398 133.235 216.862 118.464 226.193 109.96 227.592 59.3819 229.458L1.64203 230.858 3.4321 220.128ZM106.827 202.4C129.654 193.536 133.235 155.281 113.541 133.355 105.932 124.957 99.2178 122.625 79.9712 122.625L56.2488 122.625 56.2488 164.612 56.2488 206.598 75.9428 206.598C87.1327 206.598 101.008 204.733 106.827 202.4Z" stroke="#000000" stroke-width="0.458333" stroke-miterlimit="8" fill="#FFFFFF" fill-rule="evenodd" transform="matrix(1 0 0 -1 2879.5 1558.5)"/><path d="M2.81824 220.879C-0.760399 211.572 4.60756 204.593 14.8955 204.593 22.9471 204.593 23.3942 200.405 23.3942 114.323L23.3942 24.0537 10.8698 19.4009C3.7129 17.0742-2.10218 11.4907-2.10218 7.30261-2.10218 0.323189 3.26536-0.142393 38.1554 0.78834 81.9917 2.18422 94.069 9.62923 68.5722 19.866L54.2585 25.4495 55.6003 60.3475 56.9425 95.2455 71.2562 96.6414C84.6753 98.0373 87.3593 95.7111 102.568 71.0499 129.406 27.7762 131.643 23.1234 124.038 19.866 120.46 18.4701 117.329 13.3517 117.329 8.69849 117.329 0.78834 120.907-0.142393 153.113-0.142393 185.319-0.142393 188.898 0.78834 188.898 8.69849 188.898 14.2825 184.872 18.4701 177.715 20.3312 170.558 22.1926 159.823 34.756 145.956 56.625 134.774 75.2375 124.486 92.9193 123.144 96.1762 121.802 99.4336 128.959 110.601 139.247 120.837 150.877 132.936 158.034 144.103 158.481 152.013 161.612 210.176 137.905 227.393 55.6003 227.858 15.7902 227.858 4.60756 226.462 2.81824 220.879ZM114.645 194.821C124.038 187.376 126.275 181.327 126.275 165.041 126.275 152.944 123.144 141.311 118.671 135.262 109.725 123.629 83.7806 116.185 66.3358 119.442 54.706 121.768 54.706 122.699 54.706 163.18L54.706 204.593 78.8602 204.593C96.3055 204.593 105.699 201.801 114.645 194.821Z" stroke="#000000" stroke-width="0.458333" stroke-miterlimit="8" fill="#FFFFFF" fill-rule="evenodd" transform="matrix(1 0 0 -1 3078.5 1556.5)"/><path d="M-1.03401 222.033C-4.16088 213.651 4.32556 206.2 16.8314 206.2 23.9776 206.2 24.4245 198.749 24.4245 115.857L24.4245 25.5135 11.0253 20.391C-2.37422 15.7339-7.28733 3.62622 3.43223 0.83217 6.11222-0.0993249 40.5036-0.564856 78.9148 0.366638L148.591 1.76366 147.698 37.6212C146.805 69.7537 145.464 73.4792 137.425 74.8763 129.385 76.2733 127.152 72.5477 122.686 50.6604L117.773 24.582 86.5079 24.582 55.6894 24.582 55.6894 114.925 55.6894 205.734 68.1952 207.131C76.6817 208.063 80.2546 211.323 80.2546 217.842 80.2546 226.224 76.6817 227.156 40.9501 228.553 8.34535 229.484 1.64557 228.553-1.03401 222.033Z" stroke="#000000" stroke-width="0.458333" stroke-miterlimit="8" fill="#FFFFFF" fill-rule="evenodd" transform="matrix(1 0 0 -1 3472.5 1558.5)"/><path d="M-1.46676 222.876C-5.07147 213.566 0.335594 206.583 10.6985 206.583 18.8087 206.583 19.2591 202.394 19.2591 115.809L19.2591 25.0354 7.5446 22.2424C-0.565584 19.9148-3.26912 16.656-2.36794 9.2082-1.46676 3.15646 2.13795-0.567661 7.0938-0.102309 11.1489-0.102309 44.0404 0.363476 80.0854 0.828829L145.418 1.75997 145.418 39.4661C145.418 75.7757 144.967 76.7068 135.505 75.3103 126.944 74.3792 124.241 69.7239 121.087 49.7073L117.032 25.0354 83.6901 25.0354 50.7986 25.0354 51.6998 114.413 53.0518 203.79 64.3159 206.583C71.5249 208.446 76.0303 213.101 76.9315 219.618 78.2835 229.393 76.9315 229.859 39.5345 229.859 9.79733 229.859 0.335594 228.462-1.46676 222.876Z" stroke="#000000" stroke-width="0.458333" stroke-miterlimit="8" fill="#FFFFFF" fill-rule="evenodd" transform="matrix(1 0 0 -1 3656.5 1558.5)"/><path d="M46.4106 223.793C27.541 212.149 19.0044 200.971 7.77242 174.423-4.3582 146.944-6.155 101.765 3.27978 69.1619 23.048-2.09866 97.1798-23.5232 141.659 29.1069 160.978 51.9291 167.268 74.7513 167.268 118.998 167.268 167.436 153.34 200.505 124.136 220.067 100.774 235.437 67.0778 237.3 46.4106 223.793ZM112.904 195.848C127.731 177.217 135.818 140.889 133.122 102.696 130.426 65.4358 119.194 38.888 102.122 30.0386 82.8025 19.3263 71.5704 21.6552 55.3963 38.4224 23.9466 71.0252 22.5989 164.642 53.15 196.314 71.5704 214.944 97.6289 214.478 112.904 195.848Z" stroke="#000000" stroke-width="0.458333" stroke-miterlimit="8" fill="#FFFFFF" fill-rule="evenodd" transform="matrix(1 0 0 -1 3833.5 1561.5)"/></g></svg>